%FSLAX34Y34*%
%MOMM*%
%LNSOLDERMASK_BOTTOM*%
G71*
G01*
%ADD10C,1.630*%
%ADD11C,1.470*%
%ADD12C,4.200*%
%ADD13C,0.600*%
%LPD*%
X63500Y-342000D02*
G54D10*
D03*
X63500Y-322950D02*
G54D10*
D03*
X88900Y-322950D02*
G54D10*
D03*
X114300Y-322950D02*
G54D10*
D03*
X139700Y-322950D02*
G54D10*
D03*
X88900Y-342000D02*
G54D10*
D03*
X165100Y-322950D02*
G54D10*
D03*
X38100Y-322950D02*
G54D10*
D03*
X38100Y-373750D02*
G54D10*
D03*
X190500Y-373750D02*
G54D10*
D03*
X190500Y-399150D02*
G54D10*
D03*
X38100Y-399150D02*
G54D10*
D03*
X190500Y-322950D02*
G54D10*
D03*
X215900Y-322950D02*
G54D10*
D03*
X241300Y-322950D02*
G54D10*
D03*
X266700Y-322950D02*
G54D10*
D03*
X292100Y-322950D02*
G54D10*
D03*
X317500Y-322950D02*
G54D10*
D03*
X342900Y-322950D02*
G54D10*
D03*
X368300Y-322950D02*
G54D10*
D03*
X393700Y-322950D02*
G54D10*
D03*
X419100Y-322950D02*
G54D10*
D03*
X444500Y-322950D02*
G54D10*
D03*
X469900Y-322950D02*
G54D10*
D03*
X495300Y-322950D02*
G54D10*
D03*
X520700Y-322950D02*
G54D10*
D03*
X38100Y-424550D02*
G54D10*
D03*
X38100Y-449950D02*
G54D10*
D03*
X38100Y-475350D02*
G54D10*
D03*
X38100Y-500750D02*
G54D10*
D03*
X38100Y-526150D02*
G54D10*
D03*
X38100Y-551550D02*
G54D10*
D03*
X38100Y-576950D02*
G54D10*
D03*
X38100Y-602350D02*
G54D10*
D03*
X38100Y-627750D02*
G54D10*
D03*
X38100Y-653150D02*
G54D10*
D03*
X38100Y-678550D02*
G54D10*
D03*
X38100Y-703950D02*
G54D10*
D03*
X190500Y-424550D02*
G54D10*
D03*
X190500Y-449950D02*
G54D10*
D03*
X190500Y-475350D02*
G54D10*
D03*
X190500Y-500750D02*
G54D10*
D03*
X190500Y-526150D02*
G54D10*
D03*
X190500Y-551550D02*
G54D10*
D03*
X190500Y-576950D02*
G54D10*
D03*
X190500Y-602350D02*
G54D10*
D03*
X190500Y-627750D02*
G54D10*
D03*
X190500Y-653150D02*
G54D10*
D03*
X190500Y-678550D02*
G54D10*
D03*
X190500Y-703950D02*
G54D10*
D03*
X215900Y-373750D02*
G54D10*
D03*
X215900Y-399150D02*
G54D10*
D03*
X215900Y-424550D02*
G54D10*
D03*
X215900Y-449950D02*
G54D10*
D03*
X215900Y-475350D02*
G54D10*
D03*
X215900Y-500750D02*
G54D10*
D03*
X215900Y-526150D02*
G54D10*
D03*
X215900Y-551550D02*
G54D10*
D03*
X215900Y-576950D02*
G54D10*
D03*
X215900Y-602350D02*
G54D10*
D03*
X215900Y-627750D02*
G54D10*
D03*
X215900Y-653150D02*
G54D10*
D03*
X215900Y-678550D02*
G54D10*
D03*
X215900Y-703950D02*
G54D10*
D03*
X368300Y-373750D02*
G54D10*
D03*
X368300Y-399150D02*
G54D10*
D03*
X368300Y-424550D02*
G54D10*
D03*
X368300Y-449950D02*
G54D10*
D03*
X368300Y-475350D02*
G54D10*
D03*
X368300Y-500750D02*
G54D10*
D03*
X368300Y-526150D02*
G54D10*
D03*
X368300Y-551550D02*
G54D10*
D03*
X368300Y-576950D02*
G54D10*
D03*
X368300Y-602350D02*
G54D10*
D03*
X368300Y-627750D02*
G54D10*
D03*
X368300Y-653150D02*
G54D10*
D03*
X368300Y-678550D02*
G54D10*
D03*
X368300Y-703950D02*
G54D10*
D03*
X393700Y-373750D02*
G54D10*
D03*
X393700Y-399150D02*
G54D10*
D03*
X393700Y-424550D02*
G54D10*
D03*
X393700Y-449950D02*
G54D10*
D03*
X393700Y-475350D02*
G54D10*
D03*
X393700Y-500750D02*
G54D10*
D03*
X393700Y-526150D02*
G54D10*
D03*
X393700Y-551550D02*
G54D10*
D03*
X393700Y-576950D02*
G54D10*
D03*
X393700Y-602350D02*
G54D10*
D03*
X393700Y-627750D02*
G54D10*
D03*
X393700Y-653150D02*
G54D10*
D03*
X393700Y-678550D02*
G54D10*
D03*
X393700Y-703950D02*
G54D10*
D03*
X546100Y-373750D02*
G54D10*
D03*
X546100Y-399150D02*
G54D10*
D03*
X546100Y-424550D02*
G54D10*
D03*
X546100Y-449950D02*
G54D10*
D03*
X546100Y-475350D02*
G54D10*
D03*
X546100Y-500750D02*
G54D10*
D03*
X546100Y-526150D02*
G54D10*
D03*
X546100Y-551550D02*
G54D10*
D03*
X546100Y-576950D02*
G54D10*
D03*
X546100Y-602350D02*
G54D10*
D03*
X546100Y-627750D02*
G54D10*
D03*
X546100Y-653150D02*
G54D10*
D03*
X546100Y-678550D02*
G54D10*
D03*
X546100Y-703950D02*
G54D10*
D03*
X330200Y-703950D02*
G54D10*
D03*
X330200Y-665850D02*
G54D10*
D03*
X330200Y-640450D02*
G54D10*
D03*
X330200Y-615050D02*
G54D10*
D03*
X330200Y-589650D02*
G54D10*
D03*
X254000Y-665850D02*
G54D10*
D03*
X254000Y-640450D02*
G54D10*
D03*
X254000Y-615050D02*
G54D10*
D03*
X254000Y-589650D02*
G54D10*
D03*
X254000Y-564250D02*
G54D10*
D03*
X254000Y-538850D02*
G54D10*
D03*
X330200Y-538850D02*
G54D10*
D03*
X330200Y-564250D02*
G54D10*
D03*
X254000Y-513450D02*
G54D10*
D03*
X330200Y-513450D02*
G54D10*
D03*
X431800Y-513450D02*
G54D10*
D03*
X431800Y-538850D02*
G54D10*
D03*
X431800Y-564250D02*
G54D10*
D03*
X431800Y-589650D02*
G54D10*
D03*
X431800Y-615050D02*
G54D10*
D03*
X431800Y-640450D02*
G54D10*
D03*
X431800Y-665850D02*
G54D10*
D03*
X508000Y-513450D02*
G54D10*
D03*
X508000Y-538850D02*
G54D10*
D03*
X508000Y-564250D02*
G54D10*
D03*
X508000Y-589650D02*
G54D10*
D03*
X508000Y-615050D02*
G54D10*
D03*
X508000Y-640450D02*
G54D10*
D03*
X508000Y-665850D02*
G54D10*
D03*
X9525Y-284850D02*
G54D10*
D03*
X88900Y-284850D02*
G54D10*
D03*
X114300Y-284850D02*
G54D10*
D03*
X139700Y-284850D02*
G54D10*
D03*
X165100Y-284850D02*
G54D10*
D03*
X190500Y-284850D02*
G54D10*
D03*
X215900Y-284850D02*
G54D10*
D03*
X241300Y-284850D02*
G54D10*
D03*
X317500Y-284850D02*
G54D10*
D03*
X342900Y-284850D02*
G54D10*
D03*
X368300Y-284850D02*
G54D10*
D03*
X393700Y-284850D02*
G54D10*
D03*
X419100Y-284850D02*
G54D10*
D03*
X444500Y-284850D02*
G54D10*
D03*
X469900Y-284850D02*
G54D10*
D03*
X546100Y-278500D02*
G54D10*
D03*
X88900Y-208650D02*
G54D10*
D03*
X114300Y-208650D02*
G54D10*
D03*
X139700Y-208650D02*
G54D10*
D03*
X165100Y-208650D02*
G54D10*
D03*
X190500Y-208650D02*
G54D10*
D03*
X215900Y-208650D02*
G54D10*
D03*
X241300Y-208650D02*
G54D10*
D03*
X317500Y-208650D02*
G54D10*
D03*
X342900Y-208650D02*
G54D10*
D03*
X368300Y-208650D02*
G54D10*
D03*
X393700Y-208650D02*
G54D10*
D03*
X419100Y-208650D02*
G54D10*
D03*
X444500Y-208650D02*
G54D10*
D03*
X469900Y-208650D02*
G54D10*
D03*
X570706Y-208650D02*
G54D10*
D03*
X570706Y-170550D02*
G54D10*
D03*
X520700Y-170550D02*
G54D10*
D03*
X254000Y-373750D02*
G54D10*
D03*
X38100Y-170550D02*
G54D10*
D03*
X63500Y-170550D02*
G54D10*
D03*
X88900Y-170550D02*
G54D10*
D03*
X114300Y-170550D02*
G54D10*
D03*
X139700Y-170550D02*
G54D10*
D03*
X165100Y-170550D02*
G54D10*
D03*
X190500Y-170550D02*
G54D10*
D03*
X215900Y-170550D02*
G54D10*
D03*
X241300Y-170550D02*
G54D10*
D03*
X266700Y-170550D02*
G54D10*
D03*
X292100Y-170550D02*
G54D10*
D03*
X317500Y-170550D02*
G54D10*
D03*
X342900Y-170550D02*
G54D10*
D03*
X368300Y-170550D02*
G54D10*
D03*
X393700Y-170550D02*
G54D10*
D03*
X419100Y-170550D02*
G54D10*
D03*
X444500Y-170550D02*
G54D10*
D03*
X469900Y-170550D02*
G54D10*
D03*
X495300Y-170550D02*
G54D10*
D03*
X25400Y-119750D02*
G54D10*
D03*
X50800Y-119750D02*
G54D10*
D03*
X76200Y-119750D02*
G54D10*
D03*
X101600Y-119750D02*
G54D10*
D03*
X127000Y-119750D02*
G54D10*
D03*
X152400Y-119750D02*
G54D10*
D03*
X190500Y-119750D02*
G54D10*
D03*
X215900Y-119750D02*
G54D10*
D03*
X241300Y-119750D02*
G54D10*
D03*
X266700Y-119750D02*
G54D10*
D03*
X292100Y-119750D02*
G54D10*
D03*
X317500Y-119750D02*
G54D10*
D03*
X342900Y-119750D02*
G54D10*
D03*
X393700Y-119750D02*
G54D10*
D03*
X419100Y-119750D02*
G54D10*
D03*
X444500Y-119750D02*
G54D10*
D03*
X469900Y-119750D02*
G54D10*
D03*
X495300Y-119750D02*
G54D10*
D03*
X520700Y-119750D02*
G54D10*
D03*
X546100Y-119750D02*
G54D10*
D03*
X25400Y-43550D02*
G54D10*
D03*
X50800Y-43550D02*
G54D10*
D03*
X76200Y-43550D02*
G54D10*
D03*
X101600Y-43550D02*
G54D10*
D03*
X127000Y-43550D02*
G54D10*
D03*
X152400Y-43550D02*
G54D10*
D03*
X190500Y-43550D02*
G54D10*
D03*
X215900Y-43550D02*
G54D10*
D03*
X241300Y-43550D02*
G54D10*
D03*
X266700Y-43550D02*
G54D10*
D03*
X292100Y-43550D02*
G54D10*
D03*
X317500Y-43550D02*
G54D10*
D03*
X393700Y-43550D02*
G54D10*
D03*
X419100Y-43550D02*
G54D10*
D03*
X444500Y-43550D02*
G54D10*
D03*
X469900Y-43550D02*
G54D10*
D03*
X495300Y-43550D02*
G54D10*
D03*
X520700Y-43550D02*
G54D10*
D03*
X546100Y-43550D02*
G54D10*
D03*
X12700Y-18150D02*
G54D10*
D03*
X171450Y-18150D02*
G54D10*
D03*
X368300Y-18150D02*
G54D10*
D03*
X444500Y-11800D02*
G54D10*
D03*
X546100Y-11800D02*
G54D10*
D03*
X508000Y-703950D02*
G54D10*
D03*
X570706Y-50694D02*
G54D10*
D03*
X63500Y-63500D02*
G54D11*
D03*
X88900Y-63500D02*
G54D11*
D03*
X184150Y-69850D02*
G54D11*
D03*
X203200Y-57150D02*
G54D11*
D03*
X406400Y-57150D02*
G54D11*
D03*
X495300Y-63103D02*
G54D11*
D03*
X342900Y-43550D02*
G54D10*
D03*
X223044Y-92869D02*
G54D11*
D03*
X249238Y-92869D02*
G54D11*
D03*
X266700Y-92869D02*
G54D11*
D03*
X469900Y-95250D02*
G54D11*
D03*
X533400Y-101600D02*
G54D11*
D03*
X533400Y-79375D02*
G54D11*
D03*
X368300Y-120650D02*
G54D11*
D03*
X381000Y-133350D02*
G54D11*
D03*
X444500Y-146050D02*
G54D11*
D03*
X469900Y-146050D02*
G54D11*
D03*
X515938Y-11906D02*
G54D11*
D03*
X50800Y-152400D02*
G54D11*
D03*
X76200Y-146050D02*
G54D11*
D03*
X101600Y-152400D02*
G54D11*
D03*
X127000Y-158750D02*
G54D11*
D03*
X552450Y-152400D02*
G54D11*
D03*
X533400Y-228600D02*
G54D11*
D03*
X552450Y-228600D02*
G54D11*
D03*
X523081Y-241300D02*
G54D11*
D03*
X31750Y-190500D02*
G54D11*
D03*
X177800Y-184150D02*
G54D11*
D03*
X228600Y-196850D02*
G54D11*
D03*
X304800Y-184150D02*
G54D11*
D03*
X355600Y-196850D02*
G54D11*
D03*
X508000Y-184150D02*
G54D11*
D03*
X190500Y-254000D02*
G54D11*
D03*
X342900Y-263525D02*
G54D11*
D03*
X390525Y-244475D02*
G54D11*
D03*
X406400Y-234950D02*
G54D11*
D03*
X374650Y-254000D02*
G54D11*
D03*
X406400Y-273050D02*
G54D11*
D03*
X425450Y-263525D02*
G54D11*
D03*
X306388Y-31750D02*
G54D11*
D03*
X495300Y-279400D02*
G54D11*
D03*
X495300Y-304800D02*
G54D11*
D03*
X514350Y-342900D02*
G54D11*
D03*
X501650Y-361950D02*
G54D11*
D03*
X390525Y-349250D02*
G54D11*
D03*
X361950Y-339725D02*
G54D11*
D03*
X431800Y-373750D02*
G54D10*
D03*
X38100Y-304800D02*
G54D11*
D03*
X50800Y-387350D02*
G54D11*
D03*
X69850Y-412750D02*
G54D11*
D03*
X88900Y-438150D02*
G54D11*
D03*
X92869Y-463550D02*
G54D11*
D03*
X101600Y-488950D02*
G54D11*
D03*
X111919Y-565150D02*
G54D11*
D03*
X119856Y-590550D02*
G54D11*
D03*
X488950Y-488950D02*
G54D11*
D03*
X128191Y-615950D02*
G54D11*
D03*
X136128Y-641350D02*
G54D11*
D03*
X177800Y-615950D02*
G54D11*
D03*
X177800Y-641350D02*
G54D11*
D03*
X165100Y-679450D02*
G54D11*
D03*
X266700Y-577850D02*
G54D11*
D03*
X123031Y-722312D02*
G54D11*
D03*
X140494Y-722312D02*
G54D11*
D03*
X158353Y-722312D02*
G54D11*
D03*
X176609Y-722312D02*
G54D11*
D03*
X44450Y-727075D02*
G54D11*
D03*
X203200Y-736600D02*
G54D11*
D03*
X215900Y-749300D02*
G54D11*
D03*
X292100Y-749300D02*
G54D11*
D03*
X317500Y-749300D02*
G54D11*
D03*
X336550Y-749300D02*
G54D11*
D03*
X355600Y-749300D02*
G54D11*
D03*
X379412Y-749300D02*
G54D11*
D03*
X393700Y-736600D02*
G54D11*
D03*
X406400Y-755650D02*
G54D11*
D03*
X419100Y-742950D02*
G54D11*
D03*
X422275Y-727075D02*
G54D11*
D03*
X431244Y-761365D02*
G54D11*
D03*
X436562Y-742950D02*
G54D11*
D03*
X469900Y-730250D02*
G54D11*
D03*
X491728Y-730250D02*
G54D11*
D03*
X515938Y-730250D02*
G54D11*
D03*
X23999Y-789440D02*
G54D10*
D03*
X292100Y-382191D02*
G54D12*
D03*
G36*
X42862Y-779621D02*
X55562Y-779621D01*
X55562Y-849471D01*
X42862Y-849471D01*
X42862Y-779621D01*
G37*
G54D13*
X42862Y-779621D02*
X55562Y-779621D01*
X55562Y-849471D01*
X42862Y-849471D01*
X42862Y-779621D01*
G36*
X17462Y-779621D02*
X30162Y-779621D01*
X30162Y-849471D01*
X17462Y-849471D01*
X17462Y-779621D01*
G37*
G54D13*
X17462Y-779621D02*
X30162Y-779621D01*
X30162Y-849471D01*
X17462Y-849471D01*
X17462Y-779621D01*
G36*
X68262Y-779621D02*
X80962Y-779621D01*
X80962Y-849471D01*
X68262Y-849471D01*
X68262Y-779621D01*
G37*
G54D13*
X68262Y-779621D02*
X80962Y-779621D01*
X80962Y-849471D01*
X68262Y-849471D01*
X68262Y-779621D01*
G36*
X93662Y-779621D02*
X106362Y-779621D01*
X106362Y-849471D01*
X93662Y-849471D01*
X93662Y-779621D01*
G37*
G54D13*
X93662Y-779621D02*
X106362Y-779621D01*
X106362Y-849471D01*
X93662Y-849471D01*
X93662Y-779621D01*
G36*
X119062Y-779621D02*
X131762Y-779621D01*
X131762Y-849471D01*
X119062Y-849471D01*
X119062Y-779621D01*
G37*
G54D13*
X119062Y-779621D02*
X131762Y-779621D01*
X131762Y-849471D01*
X119062Y-849471D01*
X119062Y-779621D01*
G36*
X144462Y-779621D02*
X157162Y-779621D01*
X157162Y-849471D01*
X144462Y-849471D01*
X144462Y-779621D01*
G37*
G54D13*
X144462Y-779621D02*
X157162Y-779621D01*
X157162Y-849471D01*
X144462Y-849471D01*
X144462Y-779621D01*
G36*
X169862Y-779621D02*
X182562Y-779621D01*
X182562Y-849471D01*
X169862Y-849471D01*
X169862Y-779621D01*
G37*
G54D13*
X169862Y-779621D02*
X182562Y-779621D01*
X182562Y-849471D01*
X169862Y-849471D01*
X169862Y-779621D01*
G36*
X195262Y-779621D02*
X207962Y-779621D01*
X207962Y-849471D01*
X195262Y-849471D01*
X195262Y-779621D01*
G37*
G54D13*
X195262Y-779621D02*
X207962Y-779621D01*
X207962Y-849471D01*
X195262Y-849471D01*
X195262Y-779621D01*
G36*
X220662Y-779621D02*
X233362Y-779621D01*
X233362Y-849471D01*
X220662Y-849471D01*
X220662Y-779621D01*
G37*
G54D13*
X220662Y-779621D02*
X233362Y-779621D01*
X233362Y-849471D01*
X220662Y-849471D01*
X220662Y-779621D01*
G36*
X246062Y-779621D02*
X258762Y-779621D01*
X258762Y-849471D01*
X246062Y-849471D01*
X246062Y-779621D01*
G37*
G54D13*
X246062Y-779621D02*
X258762Y-779621D01*
X258762Y-849471D01*
X246062Y-849471D01*
X246062Y-779621D01*
G36*
X271462Y-779621D02*
X284162Y-779621D01*
X284162Y-849471D01*
X271462Y-849471D01*
X271462Y-779621D01*
G37*
G54D13*
X271462Y-779621D02*
X284162Y-779621D01*
X284162Y-849471D01*
X271462Y-849471D01*
X271462Y-779621D01*
G36*
X296862Y-779621D02*
X309562Y-779621D01*
X309562Y-849471D01*
X296862Y-849471D01*
X296862Y-779621D01*
G37*
G54D13*
X296862Y-779621D02*
X309562Y-779621D01*
X309562Y-849471D01*
X296862Y-849471D01*
X296862Y-779621D01*
G36*
X322262Y-779621D02*
X334962Y-779621D01*
X334962Y-849471D01*
X322262Y-849471D01*
X322262Y-779621D01*
G37*
G54D13*
X322262Y-779621D02*
X334962Y-779621D01*
X334962Y-849471D01*
X322262Y-849471D01*
X322262Y-779621D01*
G36*
X347662Y-779621D02*
X360362Y-779621D01*
X360362Y-849471D01*
X347662Y-849471D01*
X347662Y-779621D01*
G37*
G54D13*
X347662Y-779621D02*
X360362Y-779621D01*
X360362Y-849471D01*
X347662Y-849471D01*
X347662Y-779621D01*
G36*
X373062Y-779621D02*
X385762Y-779621D01*
X385762Y-849471D01*
X373062Y-849471D01*
X373062Y-779621D01*
G37*
G54D13*
X373062Y-779621D02*
X385762Y-779621D01*
X385762Y-849471D01*
X373062Y-849471D01*
X373062Y-779621D01*
G36*
X398462Y-779621D02*
X411162Y-779621D01*
X411162Y-849471D01*
X398462Y-849471D01*
X398462Y-779621D01*
G37*
G54D13*
X398462Y-779621D02*
X411162Y-779621D01*
X411162Y-849471D01*
X398462Y-849471D01*
X398462Y-779621D01*
G36*
X423862Y-779621D02*
X436562Y-779621D01*
X436562Y-849471D01*
X423862Y-849471D01*
X423862Y-779621D01*
G37*
G54D13*
X423862Y-779621D02*
X436562Y-779621D01*
X436562Y-849471D01*
X423862Y-849471D01*
X423862Y-779621D01*
G36*
X449262Y-779621D02*
X461962Y-779621D01*
X461962Y-849471D01*
X449262Y-849471D01*
X449262Y-779621D01*
G37*
G54D13*
X449262Y-779621D02*
X461962Y-779621D01*
X461962Y-849471D01*
X449262Y-849471D01*
X449262Y-779621D01*
G36*
X474662Y-779621D02*
X487362Y-779621D01*
X487362Y-849471D01*
X474662Y-849471D01*
X474662Y-779621D01*
G37*
G54D13*
X474662Y-779621D02*
X487362Y-779621D01*
X487362Y-849471D01*
X474662Y-849471D01*
X474662Y-779621D01*
G36*
X500062Y-779621D02*
X512762Y-779621D01*
X512762Y-849471D01*
X500062Y-849471D01*
X500062Y-779621D01*
G37*
G54D13*
X500062Y-779621D02*
X512762Y-779621D01*
X512762Y-849471D01*
X500062Y-849471D01*
X500062Y-779621D01*
G36*
X525462Y-779621D02*
X538162Y-779621D01*
X538162Y-849471D01*
X525462Y-849471D01*
X525462Y-779621D01*
G37*
G54D13*
X525462Y-779621D02*
X538162Y-779621D01*
X538162Y-849471D01*
X525462Y-849471D01*
X525462Y-779621D01*
G36*
X550862Y-779621D02*
X563562Y-779621D01*
X563562Y-849471D01*
X550862Y-849471D01*
X550862Y-779621D01*
G37*
G54D13*
X550862Y-779621D02*
X563562Y-779621D01*
X563562Y-849471D01*
X550862Y-849471D01*
X550862Y-779621D01*
G36*
X512921Y-779621D02*
X525462Y-779621D01*
X525462Y-798512D01*
X512921Y-798512D01*
X512921Y-779621D01*
G37*
G54D13*
X512921Y-779621D02*
X525462Y-779621D01*
X525462Y-798512D01*
X512921Y-798512D01*
X512921Y-779621D01*
X31750Y-208650D02*
G54D11*
D03*
G36*
X-1191Y-849709D02*
X-1191Y-773509D01*
X581819Y-773112D01*
X581819Y-850503D01*
X-1588Y-849709D01*
X-1191Y-849709D01*
G37*
M02*
