%FSLAX34Y34*%
%MOMM*%
%LNCOPPER_BOTTOM*%
G71*
G01*
%ADD10C,1.230*%
%ADD11C,1.070*%
%ADD12C,3.800*%
%ADD13C,0.200*%
%ADD14C,0.800*%
%ADD15C,1.400*%
%ADD16C,0.133*%
%LPD*%
X63500Y-342000D02*
G54D10*
D03*
X63500Y-322950D02*
G54D10*
D03*
X88900Y-322950D02*
G54D10*
D03*
X114300Y-322950D02*
G54D10*
D03*
X139700Y-322950D02*
G54D10*
D03*
X88900Y-342000D02*
G54D10*
D03*
X165100Y-322950D02*
G54D10*
D03*
X38100Y-322950D02*
G54D10*
D03*
X38100Y-373750D02*
G54D10*
D03*
X190500Y-373750D02*
G54D10*
D03*
X190500Y-399150D02*
G54D10*
D03*
X38100Y-399150D02*
G54D10*
D03*
X190500Y-322950D02*
G54D10*
D03*
X215900Y-322950D02*
G54D10*
D03*
X241300Y-322950D02*
G54D10*
D03*
X266700Y-322950D02*
G54D10*
D03*
X292100Y-322950D02*
G54D10*
D03*
X317500Y-322950D02*
G54D10*
D03*
X342900Y-322950D02*
G54D10*
D03*
X368300Y-322950D02*
G54D10*
D03*
X393700Y-322950D02*
G54D10*
D03*
X419100Y-322950D02*
G54D10*
D03*
X444500Y-322950D02*
G54D10*
D03*
X469900Y-322950D02*
G54D10*
D03*
X495300Y-322950D02*
G54D10*
D03*
X520700Y-322950D02*
G54D10*
D03*
X38100Y-424550D02*
G54D10*
D03*
X38100Y-449950D02*
G54D10*
D03*
X38100Y-475350D02*
G54D10*
D03*
X38100Y-500750D02*
G54D10*
D03*
X38100Y-526150D02*
G54D10*
D03*
X38100Y-551550D02*
G54D10*
D03*
X38100Y-576950D02*
G54D10*
D03*
X38100Y-602350D02*
G54D10*
D03*
X38100Y-627750D02*
G54D10*
D03*
X38100Y-653150D02*
G54D10*
D03*
X38100Y-678550D02*
G54D10*
D03*
X38100Y-703950D02*
G54D10*
D03*
X190500Y-424550D02*
G54D10*
D03*
X190500Y-449950D02*
G54D10*
D03*
X190500Y-475350D02*
G54D10*
D03*
X190500Y-500750D02*
G54D10*
D03*
X190500Y-526150D02*
G54D10*
D03*
X190500Y-551550D02*
G54D10*
D03*
X190500Y-576950D02*
G54D10*
D03*
X190500Y-602350D02*
G54D10*
D03*
X190500Y-627750D02*
G54D10*
D03*
X190500Y-653150D02*
G54D10*
D03*
X190500Y-678550D02*
G54D10*
D03*
X190500Y-703950D02*
G54D10*
D03*
X215900Y-373750D02*
G54D10*
D03*
X215900Y-399150D02*
G54D10*
D03*
X215900Y-424550D02*
G54D10*
D03*
X215900Y-449950D02*
G54D10*
D03*
X215900Y-475350D02*
G54D10*
D03*
X215900Y-500750D02*
G54D10*
D03*
X215900Y-526150D02*
G54D10*
D03*
X215900Y-551550D02*
G54D10*
D03*
X215900Y-576950D02*
G54D10*
D03*
X215900Y-602350D02*
G54D10*
D03*
X215900Y-627750D02*
G54D10*
D03*
X215900Y-653150D02*
G54D10*
D03*
X215900Y-678550D02*
G54D10*
D03*
X215900Y-703950D02*
G54D10*
D03*
X368300Y-373750D02*
G54D10*
D03*
X368300Y-399150D02*
G54D10*
D03*
X368300Y-424550D02*
G54D10*
D03*
X368300Y-449950D02*
G54D10*
D03*
X368300Y-475350D02*
G54D10*
D03*
X368300Y-500750D02*
G54D10*
D03*
X368300Y-526150D02*
G54D10*
D03*
X368300Y-551550D02*
G54D10*
D03*
X368300Y-576950D02*
G54D10*
D03*
X368300Y-602350D02*
G54D10*
D03*
X368300Y-627750D02*
G54D10*
D03*
X368300Y-653150D02*
G54D10*
D03*
X368300Y-678550D02*
G54D10*
D03*
X368300Y-703950D02*
G54D10*
D03*
X393700Y-373750D02*
G54D10*
D03*
X393700Y-399150D02*
G54D10*
D03*
X393700Y-424550D02*
G54D10*
D03*
X393700Y-449950D02*
G54D10*
D03*
X393700Y-475350D02*
G54D10*
D03*
X393700Y-500750D02*
G54D10*
D03*
X393700Y-526150D02*
G54D10*
D03*
X393700Y-551550D02*
G54D10*
D03*
X393700Y-576950D02*
G54D10*
D03*
X393700Y-602350D02*
G54D10*
D03*
X393700Y-627750D02*
G54D10*
D03*
X393700Y-653150D02*
G54D10*
D03*
X393700Y-678550D02*
G54D10*
D03*
X393700Y-703950D02*
G54D10*
D03*
X546100Y-373750D02*
G54D10*
D03*
X546100Y-399150D02*
G54D10*
D03*
X546100Y-424550D02*
G54D10*
D03*
X546100Y-449950D02*
G54D10*
D03*
X546100Y-475350D02*
G54D10*
D03*
X546100Y-500750D02*
G54D10*
D03*
X546100Y-526150D02*
G54D10*
D03*
X546100Y-551550D02*
G54D10*
D03*
X546100Y-576950D02*
G54D10*
D03*
X546100Y-602350D02*
G54D10*
D03*
X546100Y-627750D02*
G54D10*
D03*
X546100Y-653150D02*
G54D10*
D03*
X546100Y-678550D02*
G54D10*
D03*
X546100Y-703950D02*
G54D10*
D03*
X330200Y-703950D02*
G54D10*
D03*
X330200Y-665850D02*
G54D10*
D03*
X330200Y-640450D02*
G54D10*
D03*
X330200Y-615050D02*
G54D10*
D03*
X330200Y-589650D02*
G54D10*
D03*
X254000Y-665850D02*
G54D10*
D03*
X254000Y-640450D02*
G54D10*
D03*
X254000Y-615050D02*
G54D10*
D03*
X254000Y-589650D02*
G54D10*
D03*
X254000Y-564250D02*
G54D10*
D03*
X254000Y-538850D02*
G54D10*
D03*
X330200Y-538850D02*
G54D10*
D03*
X330200Y-564250D02*
G54D10*
D03*
X254000Y-513450D02*
G54D10*
D03*
X330200Y-513450D02*
G54D10*
D03*
X431800Y-513450D02*
G54D10*
D03*
X431800Y-538850D02*
G54D10*
D03*
X431800Y-564250D02*
G54D10*
D03*
X431800Y-589650D02*
G54D10*
D03*
X431800Y-615050D02*
G54D10*
D03*
X431800Y-640450D02*
G54D10*
D03*
X431800Y-665850D02*
G54D10*
D03*
X508000Y-513450D02*
G54D10*
D03*
X508000Y-538850D02*
G54D10*
D03*
X508000Y-564250D02*
G54D10*
D03*
X508000Y-589650D02*
G54D10*
D03*
X508000Y-615050D02*
G54D10*
D03*
X508000Y-640450D02*
G54D10*
D03*
X508000Y-665850D02*
G54D10*
D03*
X9525Y-284850D02*
G54D10*
D03*
X88900Y-284850D02*
G54D10*
D03*
X114300Y-284850D02*
G54D10*
D03*
X139700Y-284850D02*
G54D10*
D03*
X165100Y-284850D02*
G54D10*
D03*
X190500Y-284850D02*
G54D10*
D03*
X215900Y-284850D02*
G54D10*
D03*
X241300Y-284850D02*
G54D10*
D03*
X317500Y-284850D02*
G54D10*
D03*
X342900Y-284850D02*
G54D10*
D03*
X368300Y-284850D02*
G54D10*
D03*
X393700Y-284850D02*
G54D10*
D03*
X419100Y-284850D02*
G54D10*
D03*
X444500Y-284850D02*
G54D10*
D03*
X469900Y-284850D02*
G54D10*
D03*
X546100Y-278500D02*
G54D10*
D03*
X88900Y-208650D02*
G54D10*
D03*
X114300Y-208650D02*
G54D10*
D03*
X139700Y-208650D02*
G54D10*
D03*
X165100Y-208650D02*
G54D10*
D03*
X190500Y-208650D02*
G54D10*
D03*
X215900Y-208650D02*
G54D10*
D03*
X241300Y-208650D02*
G54D10*
D03*
X317500Y-208650D02*
G54D10*
D03*
X342900Y-208650D02*
G54D10*
D03*
X368300Y-208650D02*
G54D10*
D03*
X393700Y-208650D02*
G54D10*
D03*
X419100Y-208650D02*
G54D10*
D03*
X444500Y-208650D02*
G54D10*
D03*
X469900Y-208650D02*
G54D10*
D03*
X570706Y-208650D02*
G54D10*
D03*
X570706Y-170550D02*
G54D10*
D03*
X520700Y-170550D02*
G54D10*
D03*
X254000Y-373750D02*
G54D10*
D03*
X38100Y-170550D02*
G54D10*
D03*
X63500Y-170550D02*
G54D10*
D03*
X88900Y-170550D02*
G54D10*
D03*
X114300Y-170550D02*
G54D10*
D03*
X139700Y-170550D02*
G54D10*
D03*
X165100Y-170550D02*
G54D10*
D03*
X190500Y-170550D02*
G54D10*
D03*
X215900Y-170550D02*
G54D10*
D03*
X241300Y-170550D02*
G54D10*
D03*
X266700Y-170550D02*
G54D10*
D03*
X292100Y-170550D02*
G54D10*
D03*
X317500Y-170550D02*
G54D10*
D03*
X342900Y-170550D02*
G54D10*
D03*
X368300Y-170550D02*
G54D10*
D03*
X393700Y-170550D02*
G54D10*
D03*
X419100Y-170550D02*
G54D10*
D03*
X444500Y-170550D02*
G54D10*
D03*
X469900Y-170550D02*
G54D10*
D03*
X495300Y-170550D02*
G54D10*
D03*
X25400Y-119750D02*
G54D10*
D03*
X50800Y-119750D02*
G54D10*
D03*
X76200Y-119750D02*
G54D10*
D03*
X101600Y-119750D02*
G54D10*
D03*
X127000Y-119750D02*
G54D10*
D03*
X152400Y-119750D02*
G54D10*
D03*
X190500Y-119750D02*
G54D10*
D03*
X215900Y-119750D02*
G54D10*
D03*
X241300Y-119750D02*
G54D10*
D03*
X266700Y-119750D02*
G54D10*
D03*
X292100Y-119750D02*
G54D10*
D03*
X317500Y-119750D02*
G54D10*
D03*
X342900Y-119750D02*
G54D10*
D03*
X393700Y-119750D02*
G54D10*
D03*
X419100Y-119750D02*
G54D10*
D03*
X444500Y-119750D02*
G54D10*
D03*
X469900Y-119750D02*
G54D10*
D03*
X495300Y-119750D02*
G54D10*
D03*
X520700Y-119750D02*
G54D10*
D03*
X546100Y-119750D02*
G54D10*
D03*
X25400Y-43550D02*
G54D10*
D03*
X50800Y-43550D02*
G54D10*
D03*
X76200Y-43550D02*
G54D10*
D03*
X101600Y-43550D02*
G54D10*
D03*
X127000Y-43550D02*
G54D10*
D03*
X152400Y-43550D02*
G54D10*
D03*
X190500Y-43550D02*
G54D10*
D03*
X215900Y-43550D02*
G54D10*
D03*
X241300Y-43550D02*
G54D10*
D03*
X266700Y-43550D02*
G54D10*
D03*
X292100Y-43550D02*
G54D10*
D03*
X317500Y-43550D02*
G54D10*
D03*
X393700Y-43550D02*
G54D10*
D03*
X419100Y-43550D02*
G54D10*
D03*
X444500Y-43550D02*
G54D10*
D03*
X469900Y-43550D02*
G54D10*
D03*
X495300Y-43550D02*
G54D10*
D03*
X520700Y-43550D02*
G54D10*
D03*
X546100Y-43550D02*
G54D10*
D03*
X12700Y-18150D02*
G54D10*
D03*
X171450Y-18150D02*
G54D10*
D03*
X368300Y-18150D02*
G54D10*
D03*
X444500Y-11800D02*
G54D10*
D03*
X546100Y-11800D02*
G54D10*
D03*
X508000Y-703950D02*
G54D10*
D03*
X570706Y-50694D02*
G54D10*
D03*
X63500Y-63500D02*
G54D11*
D03*
X88900Y-63500D02*
G54D11*
D03*
X184150Y-69850D02*
G54D11*
D03*
X203200Y-57150D02*
G54D11*
D03*
X406400Y-57150D02*
G54D11*
D03*
X495300Y-63103D02*
G54D11*
D03*
X342900Y-43550D02*
G54D10*
D03*
X223044Y-92869D02*
G54D11*
D03*
X249238Y-92869D02*
G54D11*
D03*
X266700Y-92869D02*
G54D11*
D03*
X469900Y-95250D02*
G54D11*
D03*
X533400Y-101600D02*
G54D11*
D03*
X533400Y-79375D02*
G54D11*
D03*
X368300Y-120650D02*
G54D11*
D03*
X381000Y-133350D02*
G54D11*
D03*
X444500Y-146050D02*
G54D11*
D03*
X469900Y-146050D02*
G54D11*
D03*
X515938Y-11906D02*
G54D11*
D03*
X50800Y-152400D02*
G54D11*
D03*
X76200Y-146050D02*
G54D11*
D03*
X101600Y-152400D02*
G54D11*
D03*
X127000Y-158750D02*
G54D11*
D03*
X552450Y-152400D02*
G54D11*
D03*
X533400Y-228600D02*
G54D11*
D03*
X552450Y-228600D02*
G54D11*
D03*
X523081Y-241300D02*
G54D11*
D03*
X31750Y-190500D02*
G54D11*
D03*
X177800Y-184150D02*
G54D11*
D03*
X228600Y-196850D02*
G54D11*
D03*
X304800Y-184150D02*
G54D11*
D03*
X355600Y-196850D02*
G54D11*
D03*
X508000Y-184150D02*
G54D11*
D03*
X190500Y-254000D02*
G54D11*
D03*
X342900Y-263525D02*
G54D11*
D03*
X390525Y-244475D02*
G54D11*
D03*
X406400Y-234950D02*
G54D11*
D03*
X374650Y-254000D02*
G54D11*
D03*
X406400Y-273050D02*
G54D11*
D03*
X425450Y-263525D02*
G54D11*
D03*
X306388Y-31750D02*
G54D11*
D03*
X495300Y-279400D02*
G54D11*
D03*
X495300Y-304800D02*
G54D11*
D03*
X514350Y-342900D02*
G54D11*
D03*
X501650Y-361950D02*
G54D11*
D03*
X390525Y-349250D02*
G54D11*
D03*
X361950Y-339725D02*
G54D11*
D03*
X431800Y-373750D02*
G54D10*
D03*
X38100Y-304800D02*
G54D11*
D03*
X50800Y-387350D02*
G54D11*
D03*
X69850Y-412750D02*
G54D11*
D03*
X88900Y-438150D02*
G54D11*
D03*
X92869Y-463550D02*
G54D11*
D03*
X101600Y-488950D02*
G54D11*
D03*
X111919Y-565150D02*
G54D11*
D03*
X119856Y-590550D02*
G54D11*
D03*
X488950Y-488950D02*
G54D11*
D03*
X128191Y-615950D02*
G54D11*
D03*
X136128Y-641350D02*
G54D11*
D03*
X177800Y-615950D02*
G54D11*
D03*
X177800Y-641350D02*
G54D11*
D03*
X165100Y-679450D02*
G54D11*
D03*
X266700Y-577850D02*
G54D11*
D03*
X123031Y-722312D02*
G54D11*
D03*
X140494Y-722312D02*
G54D11*
D03*
X158353Y-722312D02*
G54D11*
D03*
X176609Y-722312D02*
G54D11*
D03*
X44450Y-727075D02*
G54D11*
D03*
X203200Y-736600D02*
G54D11*
D03*
X215900Y-749300D02*
G54D11*
D03*
X292100Y-749300D02*
G54D11*
D03*
X317500Y-749300D02*
G54D11*
D03*
X336550Y-749300D02*
G54D11*
D03*
X355600Y-749300D02*
G54D11*
D03*
X379412Y-749300D02*
G54D11*
D03*
X393700Y-736600D02*
G54D11*
D03*
X406400Y-755650D02*
G54D11*
D03*
X419100Y-742950D02*
G54D11*
D03*
X422275Y-727075D02*
G54D11*
D03*
X431244Y-761365D02*
G54D11*
D03*
X436562Y-742950D02*
G54D11*
D03*
X469900Y-730250D02*
G54D11*
D03*
X491728Y-730250D02*
G54D11*
D03*
X515938Y-730250D02*
G54D11*
D03*
X23999Y-789440D02*
G54D10*
D03*
X292100Y-382191D02*
G54D12*
D03*
G36*
X42862Y-779621D02*
X55562Y-779621D01*
X55562Y-849471D01*
X42862Y-849471D01*
X42862Y-779621D01*
G37*
G54D13*
X42862Y-779621D02*
X55562Y-779621D01*
X55562Y-849471D01*
X42862Y-849471D01*
X42862Y-779621D01*
G36*
X17462Y-779621D02*
X30162Y-779621D01*
X30162Y-849471D01*
X17462Y-849471D01*
X17462Y-779621D01*
G37*
G54D13*
X17462Y-779621D02*
X30162Y-779621D01*
X30162Y-849471D01*
X17462Y-849471D01*
X17462Y-779621D01*
G54D14*
X368300Y-18150D02*
X368300Y-94350D01*
X393700Y-119750D01*
G54D14*
X171450Y-18150D02*
X171450Y-100700D01*
X190500Y-119750D01*
G54D14*
X546100Y-43550D02*
X546100Y-11800D01*
G54D13*
X190500Y-43550D02*
X190500Y-63500D01*
X184150Y-69850D01*
G54D13*
X223044Y-92869D02*
X223044Y-112606D01*
X215900Y-119750D01*
G54D13*
X266700Y-92869D02*
X266700Y-119750D01*
G54D13*
X50800Y-119750D02*
X50800Y-76200D01*
X63500Y-63500D01*
G54D13*
X76200Y-119750D02*
X76200Y-76200D01*
X88900Y-63500D01*
G54D15*
X570706Y-170550D02*
X570706Y-208650D01*
X570706Y-679344D01*
X546100Y-703950D01*
G54D15*
X570706Y-170550D02*
X570706Y-87206D01*
X546100Y-43550D01*
G54D15*
X38100Y-373750D02*
X10212Y-373750D01*
X9525Y-373062D01*
G54D14*
X12700Y-18150D02*
X12617Y-164592D01*
G54D13*
X419100Y-119750D02*
X419100Y-69850D01*
X406400Y-57150D01*
G54D13*
X469900Y-119750D02*
X469000Y-119750D01*
X442912Y-93662D01*
X442912Y-45138D01*
X444500Y-43550D01*
G54D13*
X469900Y-43550D02*
X469900Y-95250D01*
G54D13*
X533400Y-79375D02*
X543719Y-79375D01*
X557609Y-93266D01*
X557609Y-130572D01*
X542131Y-146050D01*
X542131Y-219869D01*
X533400Y-228600D01*
G54D13*
X552450Y-152400D02*
X552450Y-228600D01*
G54D13*
X546100Y-119750D02*
X546100Y-96838D01*
X538956Y-89694D01*
X528638Y-89694D01*
X523478Y-84534D01*
X523478Y-68659D01*
X532209Y-59928D01*
X532209Y-28178D01*
X515938Y-11906D01*
G54D13*
X520700Y-119750D02*
X520700Y-90488D01*
X515938Y-85725D01*
X515938Y-64188D01*
X495300Y-43550D01*
G54D13*
X444500Y-11800D02*
X462650Y-11800D01*
X482600Y-31750D01*
X482600Y-133350D01*
X469900Y-146050D01*
G54D13*
X482600Y-31750D02*
X508900Y-31750D01*
X520700Y-43550D01*
G54D13*
X317500Y-119750D02*
X317500Y-90488D01*
X306388Y-77788D01*
X306388Y-31750D01*
G54D13*
X317500Y-43550D02*
X317500Y-69850D01*
X368300Y-120650D01*
G54D13*
X393700Y-170550D02*
X393700Y-146050D01*
X381000Y-133350D01*
G54D13*
X203200Y-57150D02*
X203200Y-195950D01*
X190500Y-208650D01*
G54D13*
X114300Y-170550D02*
X114300Y-149225D01*
X103188Y-136525D01*
X92975Y-136525D01*
X76200Y-119750D01*
G54D13*
X88900Y-170550D02*
X88900Y-141288D01*
X84138Y-136525D01*
X67575Y-136525D01*
X50800Y-119750D01*
G54D13*
X63500Y-170550D02*
X63500Y-147638D01*
X52388Y-136525D01*
X42175Y-136525D01*
X25400Y-119750D01*
G54D13*
X139700Y-170550D02*
X139700Y-147638D01*
X128588Y-136525D01*
X118375Y-136525D01*
X101600Y-119750D01*
G54D13*
X228600Y-196850D02*
X228600Y-107950D01*
X236538Y-100012D01*
X236538Y-67362D01*
X215900Y-43550D01*
G54D13*
X38100Y-551550D02*
X38100Y-551656D01*
X53181Y-566738D01*
X53181Y-718344D01*
X44450Y-727075D01*
G54D13*
X215900Y-208650D02*
X215900Y-236538D01*
X241300Y-261938D01*
X241300Y-284850D01*
G54D13*
X190500Y-254000D02*
X190500Y-284850D01*
G54D13*
X292100Y-119750D02*
X292100Y-144462D01*
X304800Y-157162D01*
X304800Y-184150D01*
G54D13*
X249238Y-92869D02*
X249238Y-104775D01*
X254000Y-109538D01*
X254000Y-292100D01*
X244475Y-301625D01*
X232675Y-301625D01*
X215900Y-284850D01*
G54D13*
X292100Y-43550D02*
X292100Y-82550D01*
X304800Y-95250D01*
X304800Y-138112D01*
X330200Y-163512D01*
X330200Y-250825D01*
X342900Y-263525D01*
G54D13*
X393700Y-43550D02*
X393700Y-76200D01*
X406400Y-88900D01*
X406400Y-234950D01*
G54D13*
X342900Y-119750D02*
X342900Y-123825D01*
X381000Y-161925D01*
X381000Y-234950D01*
X390525Y-244475D01*
G54D13*
X406400Y-273050D02*
X406400Y-260350D01*
X419100Y-247650D01*
X419100Y-208650D01*
G54D13*
X215900Y-322950D02*
X215900Y-354012D01*
X203200Y-366712D01*
X203200Y-462650D01*
X215900Y-475350D01*
G54D14*
X254000Y-373750D02*
X254000Y-513450D01*
G54D14*
X431800Y-373750D02*
X431800Y-513450D01*
G54D14*
X330200Y-665850D02*
X330200Y-703950D01*
G54D14*
X508000Y-665850D02*
X508000Y-703950D01*
G54D13*
X533400Y-102791D02*
X533400Y-142478D01*
X536972Y-146050D01*
X536972Y-211931D01*
X523081Y-225822D01*
G54D13*
X523081Y-225822D02*
X523081Y-241300D01*
G54D13*
X546100Y-551550D02*
X546100Y-541338D01*
X534988Y-530225D01*
X534988Y-273050D01*
X512762Y-250825D01*
X512762Y-227012D01*
X531812Y-207962D01*
X531812Y-161925D01*
X508000Y-138112D01*
X508000Y-75803D01*
X495300Y-63103D01*
G54D13*
X38100Y-304800D02*
X38100Y-223838D01*
X44450Y-217488D01*
X44450Y-203200D01*
X31750Y-190500D01*
G54D13*
X495300Y-279400D02*
X482600Y-266700D01*
X482600Y-152400D01*
X495300Y-139700D01*
X495300Y-119750D01*
G54D13*
X508000Y-564250D02*
X508900Y-564250D01*
X523875Y-549275D01*
X523875Y-352425D01*
X514350Y-342900D01*
G54D13*
X508000Y-640450D02*
X508900Y-640450D01*
X523875Y-625475D01*
X523875Y-580125D01*
X508000Y-564250D01*
G54D13*
X488950Y-488950D02*
X488950Y-703262D01*
X515938Y-730250D01*
G54D13*
X491728Y-730250D02*
X491728Y-729853D01*
X479425Y-717550D01*
X479425Y-384175D01*
X501650Y-361950D01*
G54D13*
X469900Y-730250D02*
X469900Y-368300D01*
X508000Y-330200D01*
G54D13*
X508000Y-330200D02*
X508000Y-184150D01*
G54D13*
X495300Y-304800D02*
X495300Y-295275D01*
X457200Y-257175D01*
G54D13*
X457200Y-257175D02*
X457200Y-132450D01*
X469900Y-119750D01*
G54D13*
X469900Y-284850D02*
X469794Y-284850D01*
X431800Y-246856D01*
X431800Y-158750D01*
X444500Y-146050D01*
G54D13*
X444500Y-322950D02*
X444500Y-306784D01*
X431800Y-294084D01*
X431800Y-269875D01*
X425450Y-263525D01*
G54D13*
X455612Y-781050D02*
X455612Y-725488D01*
X463550Y-717550D01*
X463550Y-363538D01*
X481012Y-346075D01*
X481012Y-295962D01*
X469900Y-284850D01*
G54D13*
X431244Y-761365D02*
X432832Y-760968D01*
X449262Y-744538D01*
X449262Y-722312D01*
X457200Y-714375D01*
X457200Y-589650D01*
X431800Y-564250D01*
G54D13*
X436562Y-742950D02*
X436562Y-725488D01*
X450850Y-711200D01*
X450850Y-634100D01*
X431800Y-615050D01*
G54D13*
X431800Y-564250D02*
X432700Y-564250D01*
X457200Y-539750D01*
X457200Y-297550D01*
X444500Y-284850D01*
G54D13*
X422275Y-727075D02*
X422275Y-701675D01*
X444500Y-677862D01*
X444500Y-638175D01*
X434975Y-628650D01*
G54D13*
X431800Y-615050D02*
X431800Y-614362D01*
X420688Y-603250D01*
X420688Y-344488D01*
X431800Y-333375D01*
X431800Y-312738D01*
X419100Y-300038D01*
X419100Y-284850D01*
G54D13*
X434975Y-628650D02*
X427038Y-628650D01*
X412750Y-614362D01*
X412750Y-329300D01*
X419100Y-322950D01*
G54D13*
X419100Y-742950D02*
X412750Y-736600D01*
X412750Y-659500D01*
X431800Y-640450D01*
G54D13*
X406400Y-755650D02*
X406400Y-691250D01*
X393700Y-678550D01*
G54D13*
X419100Y-322950D02*
X419100Y-310250D01*
X393700Y-284850D01*
G54D13*
X393700Y-284850D02*
X393700Y-273050D01*
X374650Y-254000D01*
G54D13*
X431800Y-640450D02*
X419788Y-640450D01*
X404812Y-627062D01*
X404812Y-315912D01*
X393700Y-304800D01*
X388250Y-304800D01*
X368300Y-284850D01*
G54D13*
X393700Y-736600D02*
X393700Y-762000D01*
X404812Y-773112D01*
X404812Y-782638D01*
G54D13*
X379412Y-749300D02*
X379412Y-782638D01*
G54D13*
X355600Y-749300D02*
X355600Y-747712D01*
X382588Y-720725D01*
X382588Y-540438D01*
X368300Y-526150D01*
G54D13*
X336550Y-749300D02*
X357188Y-728662D01*
X357188Y-638862D01*
X368300Y-627750D01*
G54D13*
X317500Y-749300D02*
X350838Y-715962D01*
X350838Y-619812D01*
X368300Y-602350D01*
G54D13*
X368300Y-576950D02*
X367612Y-576950D01*
X344488Y-600075D01*
X344488Y-712788D01*
X327025Y-730250D01*
X311150Y-730250D01*
X292100Y-749300D01*
G54D13*
X393700Y-424550D02*
X393700Y-423862D01*
X381000Y-411162D01*
X381000Y-373062D01*
X400050Y-354012D01*
X400050Y-329300D01*
X393700Y-322950D01*
G54D13*
X390525Y-349250D02*
X376238Y-349250D01*
X358775Y-366712D01*
X358775Y-465931D01*
X319881Y-505619D01*
X319881Y-553931D01*
X330200Y-564250D01*
G54D13*
X355600Y-196850D02*
X355600Y-292100D01*
X381000Y-317500D01*
X381000Y-334962D01*
X352425Y-363538D01*
X352425Y-463550D01*
X312738Y-503238D01*
X312738Y-565150D01*
X325438Y-577850D01*
X342000Y-577850D01*
X368300Y-551550D01*
G54D13*
X361950Y-339725D02*
X346075Y-355600D01*
X346075Y-460375D01*
X304800Y-501650D01*
X304800Y-714375D01*
X277812Y-741362D01*
X277812Y-755650D01*
X287338Y-765175D01*
X322262Y-765175D01*
X328612Y-771525D01*
X328612Y-782638D01*
G54D13*
X342900Y-284850D02*
X342900Y-303212D01*
X355600Y-315912D01*
X355600Y-330200D01*
X339725Y-346075D01*
X339725Y-457200D01*
X298450Y-498475D01*
X298450Y-709612D01*
X269875Y-738188D01*
X269875Y-763588D01*
X277812Y-771525D01*
X277812Y-782638D01*
G54D13*
X266700Y-577850D02*
X292100Y-555625D01*
X292100Y-495300D01*
X333375Y-454025D01*
X333375Y-342900D01*
X342900Y-333375D01*
X342900Y-322950D01*
G54D13*
X317500Y-208650D02*
X317500Y-254000D01*
X330200Y-266700D01*
X330200Y-336550D01*
X327025Y-339725D01*
X327025Y-450850D01*
X285750Y-492125D01*
X285750Y-531812D01*
X266700Y-552450D01*
X250825Y-552450D01*
X236538Y-566738D01*
X236538Y-728662D01*
X215900Y-749300D01*
G54D13*
X317500Y-322950D02*
X317500Y-336550D01*
X320675Y-339725D01*
X320675Y-447675D01*
X279400Y-488950D01*
X279400Y-511175D01*
X263525Y-527050D01*
X249238Y-527050D01*
X239712Y-536575D01*
X239712Y-553138D01*
X215900Y-576950D01*
G54D13*
X292100Y-322950D02*
X292100Y-339725D01*
X284162Y-347662D01*
X254000Y-347662D01*
X242888Y-358775D01*
X242888Y-517525D01*
X233362Y-527050D01*
X233362Y-534088D01*
X215900Y-551550D01*
G54D13*
X266700Y-322950D02*
X266700Y-323850D01*
X236538Y-354012D01*
X236538Y-505512D01*
X215900Y-526150D01*
G54D13*
X241300Y-322950D02*
X241300Y-338138D01*
X230188Y-349250D01*
X230188Y-488050D01*
X215900Y-500750D01*
G54D13*
X203200Y-736600D02*
X203200Y-515038D01*
X190500Y-500750D01*
G54D13*
X165100Y-170550D02*
X165100Y-184150D01*
X152400Y-196850D01*
X152400Y-272150D01*
X139700Y-284850D01*
G54D13*
X177800Y-184150D02*
X177800Y-513450D01*
X190500Y-526150D01*
G54D13*
X139700Y-284850D02*
X139700Y-285750D01*
X152400Y-298450D01*
X152400Y-361950D01*
X169862Y-377825D01*
X169862Y-530912D01*
X190500Y-551550D01*
G54D13*
X254000Y-589650D02*
X254000Y-600075D01*
X242888Y-611188D01*
X242888Y-654738D01*
X254000Y-665850D01*
G54D13*
X127000Y-158750D02*
X127000Y-347662D01*
X161925Y-382588D01*
X161925Y-538162D01*
X190500Y-566738D01*
X190500Y-576950D01*
G54D13*
X101600Y-152400D02*
X101600Y-333375D01*
X155575Y-387350D01*
X155575Y-541338D01*
X180975Y-566738D01*
X180975Y-581025D01*
X190500Y-590550D01*
X190500Y-602350D01*
G54D13*
X88900Y-342000D02*
X100700Y-342000D01*
X149225Y-390525D01*
X149225Y-544512D01*
X173038Y-568325D01*
X173038Y-581025D01*
X177800Y-585788D01*
X177800Y-615950D01*
G54D13*
X76200Y-146050D02*
X76200Y-346075D01*
X84138Y-354012D01*
X103188Y-354012D01*
X142875Y-393700D01*
X142875Y-547688D01*
X166688Y-571500D01*
X166688Y-620712D01*
X174625Y-628650D01*
X189600Y-628650D01*
X190500Y-627750D01*
G54D13*
X63500Y-342000D02*
X63500Y-352425D01*
X71438Y-360362D01*
X100012Y-360362D01*
X136525Y-396875D01*
X136525Y-550862D01*
X160338Y-574675D01*
X160338Y-623888D01*
X177800Y-641350D01*
G54D13*
X31750Y-208650D02*
X31750Y-292100D01*
X25400Y-298450D01*
X25400Y-334962D01*
X63500Y-373062D01*
X93662Y-373062D01*
X123825Y-403225D01*
X123825Y-557212D01*
X147638Y-581025D01*
X147638Y-679450D01*
X158750Y-690562D01*
X178488Y-690562D01*
X190500Y-678550D01*
G54D13*
X50800Y-152400D02*
X50800Y-350838D01*
X66675Y-366712D01*
X96838Y-366712D01*
X130175Y-400050D01*
X130175Y-554038D01*
X153988Y-577850D01*
X153988Y-635000D01*
X165100Y-646112D01*
X165100Y-679450D01*
G54D13*
X136128Y-641350D02*
X136128Y-681831D01*
X176609Y-722312D01*
G54D13*
X128191Y-615950D02*
X128191Y-692150D01*
X158353Y-722312D01*
G54D13*
X119856Y-590550D02*
X119856Y-701675D01*
X140494Y-722312D01*
G54D13*
X111919Y-565150D02*
X111919Y-711200D01*
X123031Y-722312D01*
G54D13*
X49212Y-779462D02*
X49212Y-738188D01*
X58738Y-728662D01*
X58738Y-555625D01*
X50800Y-547688D01*
X50800Y-462650D01*
X38100Y-449950D01*
G54D13*
X74612Y-779462D02*
X74612Y-758825D01*
X71438Y-755650D01*
X71438Y-736600D01*
X63500Y-728662D01*
X63500Y-552450D01*
X55562Y-544512D01*
X55562Y-442012D01*
X38100Y-424550D01*
G54D13*
X100012Y-779462D02*
X100012Y-771525D01*
X95250Y-766762D01*
X90488Y-766762D01*
X76200Y-752475D01*
X76200Y-733425D01*
X68262Y-725488D01*
X68262Y-549275D01*
X60325Y-541338D01*
X60325Y-433388D01*
X38100Y-411162D01*
X38100Y-399150D01*
G54D13*
X125412Y-779462D02*
X125412Y-773112D01*
X114300Y-762000D01*
X93662Y-762000D01*
X80962Y-749300D01*
X80962Y-730250D01*
X73025Y-722312D01*
X73025Y-546100D01*
X65088Y-538162D01*
X65088Y-431800D01*
X50800Y-417512D01*
X50800Y-387350D01*
G54D13*
X150812Y-779462D02*
X150812Y-771525D01*
X136525Y-757238D01*
X96838Y-757238D01*
X85725Y-746125D01*
X85725Y-727075D01*
X77788Y-719138D01*
X77788Y-542925D01*
X69850Y-534988D01*
X69850Y-412750D01*
G54D13*
X176212Y-779462D02*
X176212Y-768350D01*
X160338Y-752475D01*
X100012Y-752475D01*
X90488Y-742950D01*
X90488Y-723900D01*
X82550Y-715962D01*
X82550Y-539750D01*
X74612Y-531812D01*
X74612Y-452438D01*
X88900Y-438150D01*
G54D13*
X201612Y-779462D02*
X201612Y-773112D01*
X176212Y-747712D01*
X103188Y-747712D01*
X95250Y-739775D01*
X95250Y-720725D01*
X87312Y-712788D01*
X87312Y-536575D01*
X79375Y-528638D01*
X79375Y-477044D01*
X92869Y-463550D01*
G54D13*
X227012Y-779462D02*
X227012Y-774700D01*
X211138Y-758825D01*
X195262Y-758825D01*
X179388Y-742950D01*
X106362Y-742950D01*
X100012Y-736600D01*
X100012Y-717550D01*
X92075Y-709612D01*
X92075Y-533400D01*
X84138Y-525462D01*
X84138Y-506412D01*
X101600Y-488950D01*
G54D15*
X38100Y-170550D02*
X9641Y-170550D01*
X9545Y-170455D01*
X9525Y-284850D01*
G36*
X68262Y-779621D02*
X80962Y-779621D01*
X80962Y-849471D01*
X68262Y-849471D01*
X68262Y-779621D01*
G37*
G54D13*
X68262Y-779621D02*
X80962Y-779621D01*
X80962Y-849471D01*
X68262Y-849471D01*
X68262Y-779621D01*
G36*
X93662Y-779621D02*
X106362Y-779621D01*
X106362Y-849471D01*
X93662Y-849471D01*
X93662Y-779621D01*
G37*
G54D13*
X93662Y-779621D02*
X106362Y-779621D01*
X106362Y-849471D01*
X93662Y-849471D01*
X93662Y-779621D01*
G36*
X119062Y-779621D02*
X131762Y-779621D01*
X131762Y-849471D01*
X119062Y-849471D01*
X119062Y-779621D01*
G37*
G54D13*
X119062Y-779621D02*
X131762Y-779621D01*
X131762Y-849471D01*
X119062Y-849471D01*
X119062Y-779621D01*
G36*
X144462Y-779621D02*
X157162Y-779621D01*
X157162Y-849471D01*
X144462Y-849471D01*
X144462Y-779621D01*
G37*
G54D13*
X144462Y-779621D02*
X157162Y-779621D01*
X157162Y-849471D01*
X144462Y-849471D01*
X144462Y-779621D01*
G36*
X169862Y-779621D02*
X182562Y-779621D01*
X182562Y-849471D01*
X169862Y-849471D01*
X169862Y-779621D01*
G37*
G54D13*
X169862Y-779621D02*
X182562Y-779621D01*
X182562Y-849471D01*
X169862Y-849471D01*
X169862Y-779621D01*
G36*
X195262Y-779621D02*
X207962Y-779621D01*
X207962Y-849471D01*
X195262Y-849471D01*
X195262Y-779621D01*
G37*
G54D13*
X195262Y-779621D02*
X207962Y-779621D01*
X207962Y-849471D01*
X195262Y-849471D01*
X195262Y-779621D01*
G36*
X220662Y-779621D02*
X233362Y-779621D01*
X233362Y-849471D01*
X220662Y-849471D01*
X220662Y-779621D01*
G37*
G54D13*
X220662Y-779621D02*
X233362Y-779621D01*
X233362Y-849471D01*
X220662Y-849471D01*
X220662Y-779621D01*
G36*
X246062Y-779621D02*
X258762Y-779621D01*
X258762Y-849471D01*
X246062Y-849471D01*
X246062Y-779621D01*
G37*
G54D13*
X246062Y-779621D02*
X258762Y-779621D01*
X258762Y-849471D01*
X246062Y-849471D01*
X246062Y-779621D01*
G36*
X271462Y-779621D02*
X284162Y-779621D01*
X284162Y-849471D01*
X271462Y-849471D01*
X271462Y-779621D01*
G37*
G54D13*
X271462Y-779621D02*
X284162Y-779621D01*
X284162Y-849471D01*
X271462Y-849471D01*
X271462Y-779621D01*
G36*
X296862Y-779621D02*
X309562Y-779621D01*
X309562Y-849471D01*
X296862Y-849471D01*
X296862Y-779621D01*
G37*
G54D13*
X296862Y-779621D02*
X309562Y-779621D01*
X309562Y-849471D01*
X296862Y-849471D01*
X296862Y-779621D01*
G36*
X322262Y-779621D02*
X334962Y-779621D01*
X334962Y-849471D01*
X322262Y-849471D01*
X322262Y-779621D01*
G37*
G54D13*
X322262Y-779621D02*
X334962Y-779621D01*
X334962Y-849471D01*
X322262Y-849471D01*
X322262Y-779621D01*
G36*
X347662Y-779621D02*
X360362Y-779621D01*
X360362Y-849471D01*
X347662Y-849471D01*
X347662Y-779621D01*
G37*
G54D13*
X347662Y-779621D02*
X360362Y-779621D01*
X360362Y-849471D01*
X347662Y-849471D01*
X347662Y-779621D01*
G36*
X373062Y-779621D02*
X385762Y-779621D01*
X385762Y-849471D01*
X373062Y-849471D01*
X373062Y-779621D01*
G37*
G54D13*
X373062Y-779621D02*
X385762Y-779621D01*
X385762Y-849471D01*
X373062Y-849471D01*
X373062Y-779621D01*
G36*
X398462Y-779621D02*
X411162Y-779621D01*
X411162Y-849471D01*
X398462Y-849471D01*
X398462Y-779621D01*
G37*
G54D13*
X398462Y-779621D02*
X411162Y-779621D01*
X411162Y-849471D01*
X398462Y-849471D01*
X398462Y-779621D01*
G36*
X423862Y-779621D02*
X436562Y-779621D01*
X436562Y-849471D01*
X423862Y-849471D01*
X423862Y-779621D01*
G37*
G54D13*
X423862Y-779621D02*
X436562Y-779621D01*
X436562Y-849471D01*
X423862Y-849471D01*
X423862Y-779621D01*
G36*
X449262Y-779621D02*
X461962Y-779621D01*
X461962Y-849471D01*
X449262Y-849471D01*
X449262Y-779621D01*
G37*
G54D13*
X449262Y-779621D02*
X461962Y-779621D01*
X461962Y-849471D01*
X449262Y-849471D01*
X449262Y-779621D01*
G36*
X474662Y-779621D02*
X487362Y-779621D01*
X487362Y-849471D01*
X474662Y-849471D01*
X474662Y-779621D01*
G37*
G54D13*
X474662Y-779621D02*
X487362Y-779621D01*
X487362Y-849471D01*
X474662Y-849471D01*
X474662Y-779621D01*
G36*
X500062Y-779621D02*
X512762Y-779621D01*
X512762Y-849471D01*
X500062Y-849471D01*
X500062Y-779621D01*
G37*
G54D13*
X500062Y-779621D02*
X512762Y-779621D01*
X512762Y-849471D01*
X500062Y-849471D01*
X500062Y-779621D01*
G36*
X525462Y-779621D02*
X538162Y-779621D01*
X538162Y-849471D01*
X525462Y-849471D01*
X525462Y-779621D01*
G37*
G54D13*
X525462Y-779621D02*
X538162Y-779621D01*
X538162Y-849471D01*
X525462Y-849471D01*
X525462Y-779621D01*
G36*
X550862Y-779621D02*
X563562Y-779621D01*
X563562Y-849471D01*
X550862Y-849471D01*
X550862Y-779621D01*
G37*
G54D13*
X550862Y-779621D02*
X563562Y-779621D01*
X563562Y-849471D01*
X550862Y-849471D01*
X550862Y-779621D01*
G54D15*
X9525Y-284850D02*
X9525Y-736600D01*
X23812Y-750888D01*
X23812Y-789254D01*
X23999Y-789440D01*
G54D15*
X546100Y-703950D02*
X546100Y-736600D01*
X531812Y-750888D01*
X531812Y-784225D01*
G36*
X512921Y-779621D02*
X525462Y-779621D01*
X525462Y-798512D01*
X512921Y-798512D01*
X512921Y-779621D01*
G37*
G54D13*
X512921Y-779621D02*
X525462Y-779621D01*
X525462Y-798512D01*
X512921Y-798512D01*
X512921Y-779621D01*
X31750Y-208650D02*
G54D11*
D03*
G54D16*
X45411Y-6885D02*
X45411Y-17552D01*
G54D16*
X45411Y-11152D02*
X46211Y-12485D01*
X47811Y-12885D01*
X49411Y-12485D01*
X50211Y-11152D01*
X50211Y-8485D01*
X49411Y-7152D01*
X47811Y-6885D01*
X46211Y-7152D01*
X45411Y-8485D01*
G54D16*
X53144Y-7552D02*
X54744Y-6885D01*
X56344Y-6885D01*
X57944Y-7552D01*
X57944Y-8885D01*
X57144Y-9552D01*
X53944Y-10218D01*
X53144Y-10885D01*
X53144Y-12218D01*
X54744Y-12885D01*
X56344Y-12885D01*
X57944Y-12218D01*
M02*
