; Drill file
; Format: 2.4 (00.0000)
M48
INCH
T01C0.0264
T02C0.0311
T03C0.1268
%
G05
G90
T01
X001750Y-028620
X004840Y-028440
X005530Y-028440
X006230Y-028440
X006950Y-028440
X008000Y-029000
X008500Y-029500
X011500Y-029500
X012500Y-029500
X013250Y-029500
X014000Y-029500
X014940Y-029500
X015500Y-029000
X016000Y-029750
X016500Y-029250
X016630Y-028620
X017190Y-029250
X016980Y-029980
X018500Y-028750
X019360Y-028750
X020310Y-028750
X019250Y-019250
X019750Y-014250
X020250Y-013500
X019500Y-012000
X019500Y-011000
X020590Y-009500
X021000Y-009000
X021750Y-009000
X020000Y-007250
X018500Y-005750
X017500Y-005750
X018500Y-003750
X019500Y-002480
X021000Y-003120
X021000Y-004000
X021750Y-006000
X020310Y-000470
X016000Y-002250
X014500Y-004750
X015000Y-005250
X014000Y-007750
X012000Y-007250
X009000Y-007750
X007000Y-007250
X005000Y-006250
X004000Y-006000
X003000Y-005750
X002000Y-006000
X001250Y-007500
X001250Y-008210
X001500Y-012000
X002000Y-015250
X002750Y-016250
X003500Y-017250
X003660Y-018250
X004000Y-019250
X004410Y-022250
X004720Y-023250
X005050Y-024250
X005360Y-025250
X007000Y-025250
X007000Y-024250
X006500Y-026750
X010500Y-022750
X014250Y-013370
X015380Y-013750
X016000Y-010750
X016750Y-010380
X016000Y-009250
X015380Y-009630
X014750Y-010000
X013500Y-010380
X007500Y-010000
X008780Y-003660
X009810Y-003660
X010500Y-003660
X008000Y-002250
X007250Y-002750
X003500Y-002500
X002500Y-002500
X012060Y-001250
T02
X000940Y-031080
X001500Y-027710
X001500Y-026710
X001500Y-025710
X001500Y-024710
X001500Y-023710
X001500Y-022710
X001500Y-021710
X001500Y-020710
X001500Y-019710
X001500Y-018710
X001500Y-017710
X001500Y-016710
X001500Y-015710
X001500Y-014710
X002500Y-013460
X002500Y-012710
X003500Y-012710
X003500Y-013460
X004500Y-012710
X005500Y-012710
X006500Y-012710
X007500Y-012710
X008500Y-012710
X009500Y-012710
X010500Y-012710
X011500Y-012710
X012500Y-012710
X013500Y-012710
X014500Y-012710
X015500Y-012710
X016500Y-012710
X017500Y-012710
X018500Y-012710
X019500Y-012710
X020500Y-012710
X021500Y-010960
X022470Y-008210
X022470Y-006710
X020500Y-006710
X019500Y-006710
X018500Y-006710
X017500Y-006710
X016500Y-006710
X015500Y-006710
X014500Y-006710
X013500Y-006710
X012500Y-006710
X011500Y-006710
X010500Y-006710
X009500Y-006710
X008500Y-006710
X007500Y-006710
X006500Y-006710
X005500Y-006710
X004500Y-006710
X003500Y-006710
X002500Y-006710
X001500Y-006710
X001000Y-004710
X002000Y-004710
X003000Y-004710
X004000Y-004710
X005000Y-004710
X006000Y-004710
X007500Y-004710
X008500Y-004710
X009500Y-004710
X010500Y-004710
X011500Y-004710
X012500Y-004710
X013500Y-004710
X015500Y-004710
X016500Y-004710
X017500Y-004710
X018500Y-004710
X019500Y-004710
X020500Y-004710
X021500Y-004710
X022470Y-002000
X021500Y-001710
X020500Y-001710
X019500Y-001710
X018500Y-001710
X017500Y-001710
X016500Y-001710
X015500Y-001710
X014500Y-000710
X013500Y-001710
X012500Y-001710
X011500Y-001710
X010500Y-001710
X009500Y-001710
X008500Y-001710
X007500Y-001710
X006750Y-000710
X006000Y-001710
X005000Y-001710
X004000Y-001710
X003000Y-001710
X002000Y-001710
X001000Y-001710
X000500Y-000710
X003500Y-008210
X004500Y-008210
X005500Y-008210
X006500Y-008210
X007500Y-008210
X008500Y-008210
X009500Y-008210
X009500Y-011210
X008500Y-011210
X007500Y-011210
X006500Y-011210
X005500Y-011210
X004500Y-011210
X003500Y-011210
X001500Y-012710
X000370Y-011210
X007500Y-014710
X007500Y-015710
X007500Y-016710
X007500Y-017710
X007500Y-018710
X007500Y-019710
X007500Y-020710
X007500Y-021710
X007500Y-022710
X007500Y-023710
X007500Y-024710
X007500Y-025710
X007500Y-026710
X007500Y-027710
X008500Y-027710
X008500Y-026710
X008500Y-025710
X008500Y-024710
X008500Y-023710
X008500Y-022710
X008500Y-021710
X008500Y-020710
X008500Y-019710
X008500Y-018710
X008500Y-017710
X008500Y-016710
X008500Y-015710
X008500Y-014710
X010000Y-014710
X012500Y-011210
X013500Y-011210
X014500Y-011210
X015500Y-011210
X016500Y-011210
X017500Y-011210
X018500Y-011210
X018500Y-008210
X017500Y-008210
X016500Y-008210
X015500Y-008210
X014500Y-008210
X013500Y-008210
X012500Y-008210
X014500Y-014710
X014500Y-015710
X014500Y-016710
X014500Y-017710
X014500Y-018710
X014500Y-019710
X014500Y-020710
X014500Y-021710
X014500Y-022710
X014500Y-023710
X014500Y-024710
X014500Y-025710
X014500Y-026710
X014500Y-027710
X015500Y-027710
X015500Y-026710
X015500Y-025710
X015500Y-024710
X015500Y-023710
X015500Y-022710
X015500Y-021710
X015500Y-020710
X015500Y-019710
X015500Y-018710
X015500Y-017710
X015500Y-016710
X015500Y-015710
X015500Y-014710
X017000Y-014710
X021500Y-014710
X021500Y-015710
X021500Y-016710
X021500Y-017710
X021500Y-018710
X021500Y-019710
X021500Y-020710
X021500Y-021710
X021500Y-022710
X021500Y-023710
X021500Y-024710
X021500Y-025710
X021500Y-026710
X021500Y-027710
X020000Y-027710
X020000Y-026210
X020000Y-025210
X020000Y-024210
X020000Y-023210
X020000Y-022210
X020000Y-021210
X020000Y-020210
X017000Y-020210
X017000Y-021210
X017000Y-022210
X017000Y-023210
X017000Y-024210
X017000Y-025210
X017000Y-026210
X013000Y-026210
X013000Y-025210
X013000Y-024210
X013000Y-023210
X013000Y-022210
X013000Y-021210
X013000Y-020210
X010000Y-020210
X010000Y-021210
X010000Y-022210
X010000Y-023210
X010000Y-024210
X010000Y-025210
X010000Y-026210
X013000Y-027710
X017500Y-000460
X021500Y-000460
T03
X011500Y-015050
M30
