%FSLAX34Y34*%
%MOMM*%
%LNCOPPER_TOP*%
G71*
G01*
%ADD10C,1.230*%
%ADD11C,1.070*%
%ADD12C,0.200*%
%ADD13C,0.800*%
%ADD14C,3.800*%
%ADD15C,0.078*%
%ADD16C,0.144*%
%ADD17C,0.133*%
%LPD*%
X63500Y-342000D02*
G54D10*
D03*
X63500Y-322950D02*
G54D10*
D03*
X88900Y-322950D02*
G54D10*
D03*
X114300Y-322950D02*
G54D10*
D03*
X139700Y-322950D02*
G54D10*
D03*
X88900Y-342000D02*
G54D10*
D03*
X165100Y-322950D02*
G54D10*
D03*
X38100Y-322950D02*
G54D10*
D03*
X38100Y-373750D02*
G54D10*
D03*
X190500Y-373750D02*
G54D10*
D03*
X190500Y-399150D02*
G54D10*
D03*
X38100Y-399150D02*
G54D10*
D03*
X190500Y-322950D02*
G54D10*
D03*
X215900Y-322950D02*
G54D10*
D03*
X241300Y-322950D02*
G54D10*
D03*
X266700Y-322950D02*
G54D10*
D03*
X292100Y-322950D02*
G54D10*
D03*
X317500Y-322950D02*
G54D10*
D03*
X342900Y-322950D02*
G54D10*
D03*
X368300Y-322950D02*
G54D10*
D03*
X393700Y-322950D02*
G54D10*
D03*
X419100Y-322950D02*
G54D10*
D03*
X444500Y-322950D02*
G54D10*
D03*
X469900Y-322950D02*
G54D10*
D03*
X495300Y-322950D02*
G54D10*
D03*
X520700Y-322950D02*
G54D10*
D03*
X38100Y-424550D02*
G54D10*
D03*
X38100Y-449950D02*
G54D10*
D03*
X38100Y-475350D02*
G54D10*
D03*
X38100Y-500750D02*
G54D10*
D03*
X38100Y-526150D02*
G54D10*
D03*
X38100Y-551550D02*
G54D10*
D03*
X38100Y-576950D02*
G54D10*
D03*
X38100Y-602350D02*
G54D10*
D03*
X38100Y-627750D02*
G54D10*
D03*
X38100Y-653150D02*
G54D10*
D03*
X38100Y-678550D02*
G54D10*
D03*
X38100Y-703950D02*
G54D10*
D03*
X190500Y-424550D02*
G54D10*
D03*
X190500Y-449950D02*
G54D10*
D03*
X190500Y-475350D02*
G54D10*
D03*
X190500Y-500750D02*
G54D10*
D03*
X190500Y-526150D02*
G54D10*
D03*
X190500Y-551550D02*
G54D10*
D03*
X190500Y-576950D02*
G54D10*
D03*
X190500Y-602350D02*
G54D10*
D03*
X190500Y-627750D02*
G54D10*
D03*
X190500Y-653150D02*
G54D10*
D03*
X190500Y-678550D02*
G54D10*
D03*
X190500Y-703950D02*
G54D10*
D03*
X215900Y-373750D02*
G54D10*
D03*
X215900Y-399150D02*
G54D10*
D03*
X215900Y-424550D02*
G54D10*
D03*
X215900Y-449950D02*
G54D10*
D03*
X215900Y-475350D02*
G54D10*
D03*
X215900Y-500750D02*
G54D10*
D03*
X215900Y-526150D02*
G54D10*
D03*
X215900Y-551550D02*
G54D10*
D03*
X215900Y-576950D02*
G54D10*
D03*
X215900Y-602350D02*
G54D10*
D03*
X215900Y-627750D02*
G54D10*
D03*
X215900Y-653150D02*
G54D10*
D03*
X215900Y-678550D02*
G54D10*
D03*
X215900Y-703950D02*
G54D10*
D03*
X368300Y-373750D02*
G54D10*
D03*
X368300Y-399150D02*
G54D10*
D03*
X368300Y-424550D02*
G54D10*
D03*
X368300Y-449950D02*
G54D10*
D03*
X368300Y-475350D02*
G54D10*
D03*
X368300Y-500750D02*
G54D10*
D03*
X368300Y-526150D02*
G54D10*
D03*
X368300Y-551550D02*
G54D10*
D03*
X368300Y-576950D02*
G54D10*
D03*
X368300Y-602350D02*
G54D10*
D03*
X368300Y-627750D02*
G54D10*
D03*
X368300Y-653150D02*
G54D10*
D03*
X368300Y-678550D02*
G54D10*
D03*
X368300Y-703950D02*
G54D10*
D03*
X393700Y-373750D02*
G54D10*
D03*
X393700Y-399150D02*
G54D10*
D03*
X393700Y-424550D02*
G54D10*
D03*
X393700Y-449950D02*
G54D10*
D03*
X393700Y-475350D02*
G54D10*
D03*
X393700Y-500750D02*
G54D10*
D03*
X393700Y-526150D02*
G54D10*
D03*
X393700Y-551550D02*
G54D10*
D03*
X393700Y-576950D02*
G54D10*
D03*
X393700Y-602350D02*
G54D10*
D03*
X393700Y-627750D02*
G54D10*
D03*
X393700Y-653150D02*
G54D10*
D03*
X393700Y-678550D02*
G54D10*
D03*
X393700Y-703950D02*
G54D10*
D03*
X546100Y-373750D02*
G54D10*
D03*
X546100Y-399150D02*
G54D10*
D03*
X546100Y-424550D02*
G54D10*
D03*
X546100Y-449950D02*
G54D10*
D03*
X546100Y-475350D02*
G54D10*
D03*
X546100Y-500750D02*
G54D10*
D03*
X546100Y-526150D02*
G54D10*
D03*
X546100Y-551550D02*
G54D10*
D03*
X546100Y-576950D02*
G54D10*
D03*
X546100Y-602350D02*
G54D10*
D03*
X546100Y-627750D02*
G54D10*
D03*
X546100Y-653150D02*
G54D10*
D03*
X546100Y-678550D02*
G54D10*
D03*
X546100Y-703950D02*
G54D10*
D03*
X330200Y-703950D02*
G54D10*
D03*
X330200Y-665850D02*
G54D10*
D03*
X330200Y-640450D02*
G54D10*
D03*
X330200Y-615050D02*
G54D10*
D03*
X330200Y-589650D02*
G54D10*
D03*
X254000Y-665850D02*
G54D10*
D03*
X254000Y-640450D02*
G54D10*
D03*
X254000Y-615050D02*
G54D10*
D03*
X254000Y-589650D02*
G54D10*
D03*
X254000Y-564250D02*
G54D10*
D03*
X254000Y-538850D02*
G54D10*
D03*
X330200Y-538850D02*
G54D10*
D03*
X330200Y-564250D02*
G54D10*
D03*
X254000Y-513450D02*
G54D10*
D03*
X330200Y-513450D02*
G54D10*
D03*
X431800Y-513450D02*
G54D10*
D03*
X431800Y-538850D02*
G54D10*
D03*
X431800Y-564250D02*
G54D10*
D03*
X431800Y-589650D02*
G54D10*
D03*
X431800Y-615050D02*
G54D10*
D03*
X431800Y-640450D02*
G54D10*
D03*
X431800Y-665850D02*
G54D10*
D03*
X508000Y-513450D02*
G54D10*
D03*
X508000Y-538850D02*
G54D10*
D03*
X508000Y-564250D02*
G54D10*
D03*
X508000Y-589650D02*
G54D10*
D03*
X508000Y-615050D02*
G54D10*
D03*
X508000Y-640450D02*
G54D10*
D03*
X508000Y-665850D02*
G54D10*
D03*
X9525Y-284850D02*
G54D10*
D03*
X88900Y-284850D02*
G54D10*
D03*
X114300Y-284850D02*
G54D10*
D03*
X139700Y-284850D02*
G54D10*
D03*
X165100Y-284850D02*
G54D10*
D03*
X190500Y-284850D02*
G54D10*
D03*
X215900Y-284850D02*
G54D10*
D03*
X241300Y-284850D02*
G54D10*
D03*
X317500Y-284850D02*
G54D10*
D03*
X342900Y-284850D02*
G54D10*
D03*
X368300Y-284850D02*
G54D10*
D03*
X393700Y-284850D02*
G54D10*
D03*
X419100Y-284850D02*
G54D10*
D03*
X444500Y-284850D02*
G54D10*
D03*
X469900Y-284850D02*
G54D10*
D03*
X546100Y-278500D02*
G54D10*
D03*
X88900Y-208650D02*
G54D10*
D03*
X114300Y-208650D02*
G54D10*
D03*
X139700Y-208650D02*
G54D10*
D03*
X165100Y-208650D02*
G54D10*
D03*
X190500Y-208650D02*
G54D10*
D03*
X215900Y-208650D02*
G54D10*
D03*
X241300Y-208650D02*
G54D10*
D03*
X317500Y-208650D02*
G54D10*
D03*
X342900Y-208650D02*
G54D10*
D03*
X368300Y-208650D02*
G54D10*
D03*
X393700Y-208650D02*
G54D10*
D03*
X419100Y-208650D02*
G54D10*
D03*
X444500Y-208650D02*
G54D10*
D03*
X469900Y-208650D02*
G54D10*
D03*
X570706Y-208650D02*
G54D10*
D03*
X570706Y-170550D02*
G54D10*
D03*
X520700Y-170550D02*
G54D10*
D03*
X254000Y-373750D02*
G54D10*
D03*
X38100Y-170550D02*
G54D10*
D03*
X63500Y-170550D02*
G54D10*
D03*
X88900Y-170550D02*
G54D10*
D03*
X114300Y-170550D02*
G54D10*
D03*
X139700Y-170550D02*
G54D10*
D03*
X165100Y-170550D02*
G54D10*
D03*
X190500Y-170550D02*
G54D10*
D03*
X215900Y-170550D02*
G54D10*
D03*
X241300Y-170550D02*
G54D10*
D03*
X266700Y-170550D02*
G54D10*
D03*
X292100Y-170550D02*
G54D10*
D03*
X317500Y-170550D02*
G54D10*
D03*
X342900Y-170550D02*
G54D10*
D03*
X368300Y-170550D02*
G54D10*
D03*
X393700Y-170550D02*
G54D10*
D03*
X419100Y-170550D02*
G54D10*
D03*
X444500Y-170550D02*
G54D10*
D03*
X469900Y-170550D02*
G54D10*
D03*
X495300Y-170550D02*
G54D10*
D03*
X25400Y-119750D02*
G54D10*
D03*
X50800Y-119750D02*
G54D10*
D03*
X76200Y-119750D02*
G54D10*
D03*
X101600Y-119750D02*
G54D10*
D03*
X127000Y-119750D02*
G54D10*
D03*
X152400Y-119750D02*
G54D10*
D03*
X190500Y-119750D02*
G54D10*
D03*
X215900Y-119750D02*
G54D10*
D03*
X241300Y-119750D02*
G54D10*
D03*
X266700Y-119750D02*
G54D10*
D03*
X292100Y-119750D02*
G54D10*
D03*
X317500Y-119750D02*
G54D10*
D03*
X342900Y-119750D02*
G54D10*
D03*
X393700Y-119750D02*
G54D10*
D03*
X419100Y-119750D02*
G54D10*
D03*
X444500Y-119750D02*
G54D10*
D03*
X469900Y-119750D02*
G54D10*
D03*
X495300Y-119750D02*
G54D10*
D03*
X520700Y-119750D02*
G54D10*
D03*
X546100Y-119750D02*
G54D10*
D03*
X25400Y-43550D02*
G54D10*
D03*
X50800Y-43550D02*
G54D10*
D03*
X76200Y-43550D02*
G54D10*
D03*
X101600Y-43550D02*
G54D10*
D03*
X127000Y-43550D02*
G54D10*
D03*
X152400Y-43550D02*
G54D10*
D03*
X190500Y-43550D02*
G54D10*
D03*
X215900Y-43550D02*
G54D10*
D03*
X241300Y-43550D02*
G54D10*
D03*
X266700Y-43550D02*
G54D10*
D03*
X292100Y-43550D02*
G54D10*
D03*
X317500Y-43550D02*
G54D10*
D03*
X393700Y-43550D02*
G54D10*
D03*
X419100Y-43550D02*
G54D10*
D03*
X444500Y-43550D02*
G54D10*
D03*
X469900Y-43550D02*
G54D10*
D03*
X495300Y-43550D02*
G54D10*
D03*
X520700Y-43550D02*
G54D10*
D03*
X546100Y-43550D02*
G54D10*
D03*
X12700Y-18150D02*
G54D10*
D03*
X171450Y-18150D02*
G54D10*
D03*
X368300Y-18150D02*
G54D10*
D03*
X444500Y-11800D02*
G54D10*
D03*
X546100Y-11800D02*
G54D10*
D03*
X508000Y-703950D02*
G54D10*
D03*
X570706Y-50694D02*
G54D10*
D03*
X63500Y-63500D02*
G54D11*
D03*
X88900Y-63500D02*
G54D11*
D03*
X184150Y-69850D02*
G54D11*
D03*
X203200Y-57150D02*
G54D11*
D03*
X406400Y-57150D02*
G54D11*
D03*
X495300Y-63103D02*
G54D11*
D03*
X342900Y-43550D02*
G54D10*
D03*
X223044Y-92869D02*
G54D11*
D03*
X249238Y-92869D02*
G54D11*
D03*
X266700Y-92869D02*
G54D11*
D03*
X469900Y-95250D02*
G54D11*
D03*
X533400Y-101600D02*
G54D11*
D03*
X533400Y-79375D02*
G54D11*
D03*
X368300Y-120650D02*
G54D11*
D03*
X381000Y-133350D02*
G54D11*
D03*
X444500Y-146050D02*
G54D11*
D03*
X469900Y-146050D02*
G54D11*
D03*
X515938Y-11906D02*
G54D11*
D03*
X50800Y-152400D02*
G54D11*
D03*
X76200Y-146050D02*
G54D11*
D03*
X101600Y-152400D02*
G54D11*
D03*
X127000Y-158750D02*
G54D11*
D03*
X552450Y-152400D02*
G54D11*
D03*
X533400Y-228600D02*
G54D11*
D03*
X552450Y-228600D02*
G54D11*
D03*
X523081Y-241300D02*
G54D11*
D03*
X31750Y-190500D02*
G54D11*
D03*
X177800Y-184150D02*
G54D11*
D03*
X228600Y-196850D02*
G54D11*
D03*
X304800Y-184150D02*
G54D11*
D03*
X355600Y-196850D02*
G54D11*
D03*
X508000Y-184150D02*
G54D11*
D03*
X190500Y-254000D02*
G54D11*
D03*
X342900Y-263525D02*
G54D11*
D03*
X390525Y-244475D02*
G54D11*
D03*
X406400Y-234950D02*
G54D11*
D03*
X374650Y-254000D02*
G54D11*
D03*
X406400Y-273050D02*
G54D11*
D03*
X425450Y-263525D02*
G54D11*
D03*
X306388Y-31750D02*
G54D11*
D03*
X495300Y-279400D02*
G54D11*
D03*
X495300Y-304800D02*
G54D11*
D03*
X514350Y-342900D02*
G54D11*
D03*
X501650Y-361950D02*
G54D11*
D03*
X390525Y-349250D02*
G54D11*
D03*
X361950Y-339725D02*
G54D11*
D03*
X431800Y-373750D02*
G54D10*
D03*
X38100Y-304800D02*
G54D11*
D03*
X50800Y-387350D02*
G54D11*
D03*
X69850Y-412750D02*
G54D11*
D03*
X88900Y-438150D02*
G54D11*
D03*
X92869Y-463550D02*
G54D11*
D03*
X101600Y-488950D02*
G54D11*
D03*
X111919Y-565150D02*
G54D11*
D03*
X119856Y-590550D02*
G54D11*
D03*
X488950Y-488950D02*
G54D11*
D03*
X128191Y-615950D02*
G54D11*
D03*
X136128Y-641350D02*
G54D11*
D03*
X177800Y-615950D02*
G54D11*
D03*
X177800Y-641350D02*
G54D11*
D03*
X165100Y-679450D02*
G54D11*
D03*
X266700Y-577850D02*
G54D11*
D03*
G54D12*
X215900Y-602350D02*
X216800Y-602350D01*
X241300Y-577850D01*
X266700Y-577850D01*
X123031Y-722312D02*
G54D11*
D03*
X140494Y-722312D02*
G54D11*
D03*
X158353Y-722312D02*
G54D11*
D03*
X176609Y-722312D02*
G54D11*
D03*
X44450Y-727075D02*
G54D11*
D03*
X203200Y-736600D02*
G54D11*
D03*
X215900Y-749300D02*
G54D11*
D03*
X292100Y-749300D02*
G54D11*
D03*
X317500Y-749300D02*
G54D11*
D03*
X336550Y-749300D02*
G54D11*
D03*
X355600Y-749300D02*
G54D11*
D03*
X379412Y-749300D02*
G54D11*
D03*
X393700Y-736600D02*
G54D11*
D03*
X406400Y-755650D02*
G54D11*
D03*
X419100Y-742950D02*
G54D11*
D03*
X422275Y-727075D02*
G54D11*
D03*
X431244Y-761365D02*
G54D11*
D03*
X436562Y-742950D02*
G54D11*
D03*
X469900Y-730250D02*
G54D11*
D03*
X491728Y-730250D02*
G54D11*
D03*
X515938Y-730250D02*
G54D11*
D03*
G54D12*
X38100Y-703950D02*
X190500Y-703950D01*
G54D12*
X38100Y-678550D02*
X164200Y-678550D01*
X165100Y-679450D01*
G54D12*
X136128Y-641350D02*
X177800Y-641350D01*
G54D12*
X128191Y-615950D02*
X177800Y-615950D01*
G54D12*
X119856Y-590550D02*
X204100Y-590550D01*
X215900Y-602350D01*
G54D12*
X38100Y-500750D02*
X108850Y-500750D01*
X120650Y-488950D01*
X204100Y-488950D01*
X215900Y-500750D01*
G36*
X43021Y-779621D02*
X55721Y-779621D01*
X55721Y-849471D01*
X43021Y-849471D01*
X43021Y-779621D01*
G37*
G54D12*
X43021Y-779621D02*
X55721Y-779621D01*
X55721Y-849471D01*
X43021Y-849471D01*
X43021Y-779621D01*
G36*
X17621Y-779621D02*
X30321Y-779621D01*
X30321Y-849471D01*
X17621Y-849471D01*
X17621Y-779621D01*
G37*
G54D12*
X17621Y-779621D02*
X30321Y-779621D01*
X30321Y-849471D01*
X17621Y-849471D01*
X17621Y-779621D01*
X23999Y-789440D02*
G54D10*
D03*
G54D12*
X190500Y-703950D02*
X189600Y-703950D01*
X177800Y-692150D01*
X177800Y-665850D01*
X190500Y-653150D01*
G54D12*
X111919Y-565150D02*
X204100Y-565150D01*
X215900Y-576950D01*
G54D13*
X44450Y-374650D02*
X101600Y-374650D01*
X114300Y-361950D01*
X204100Y-361950D01*
X215900Y-373750D01*
G54D13*
X215900Y-373750D02*
X254000Y-373750D01*
G54D13*
X393700Y-373750D02*
X431800Y-373750D01*
X292100Y-382191D02*
G54D14*
D03*
G36*
X260350Y-368300D02*
X266700Y-361950D01*
X304800Y-361950D01*
X317500Y-374650D01*
X342900Y-374650D01*
X314722Y-402828D01*
X283078Y-402828D01*
X254000Y-373750D01*
X260350Y-368300D01*
G37*
G54D13*
X260350Y-368300D02*
X266700Y-361950D01*
X304800Y-361950D01*
X317500Y-374650D01*
X342900Y-374650D01*
X314722Y-402828D01*
X283078Y-402828D01*
X254000Y-373750D01*
X260350Y-368300D01*
G54D13*
X342900Y-374650D02*
X355600Y-361950D01*
X381900Y-361950D01*
X393700Y-373750D01*
G54D12*
X50800Y-387350D02*
X107950Y-387350D01*
X121444Y-373856D01*
X190500Y-373750D01*
G54D12*
X38100Y-399150D02*
X108850Y-399150D01*
X120650Y-387350D01*
X204100Y-387350D01*
X215900Y-399150D01*
G54D12*
X69850Y-412750D02*
X107950Y-412750D01*
X121047Y-399653D01*
X190500Y-399150D01*
G54D12*
X38100Y-424550D02*
X108850Y-424550D01*
X120650Y-412750D01*
X204100Y-412750D01*
X215900Y-424550D01*
G54D12*
X88900Y-438150D02*
X107950Y-438150D01*
X121047Y-425053D01*
X190500Y-424550D01*
G54D12*
X38100Y-449950D02*
X108850Y-449950D01*
X120650Y-438150D01*
X204100Y-438150D01*
X215900Y-449950D01*
G54D12*
X92869Y-463550D02*
X107950Y-463550D01*
X121444Y-450056D01*
X190500Y-449950D01*
G54D12*
X38100Y-475350D02*
X108850Y-475350D01*
X120650Y-463550D01*
X204100Y-463550D01*
X215900Y-475350D01*
G54D12*
X101600Y-488950D02*
X107950Y-488950D01*
X121047Y-475853D01*
X190500Y-475350D01*
G54D12*
X38100Y-653150D02*
X83450Y-653150D01*
X95250Y-641350D01*
X136128Y-641350D01*
G54D12*
X38100Y-602350D02*
X83450Y-602350D01*
X95250Y-590550D01*
X119856Y-590550D01*
G54D12*
X38100Y-576950D02*
X83450Y-576950D01*
X95250Y-565150D01*
X111919Y-565150D01*
G54D12*
X38100Y-551550D02*
X83450Y-551550D01*
X95250Y-539750D01*
X204100Y-539750D01*
X215900Y-551550D01*
G54D12*
X38100Y-526150D02*
X83450Y-526150D01*
X95250Y-514350D01*
X204100Y-514350D01*
X215900Y-526150D01*
G54D12*
X177800Y-641350D02*
X204100Y-641350D01*
X215900Y-653150D01*
G54D12*
X177800Y-615950D02*
X204100Y-615950D01*
X215900Y-627750D01*
G54D13*
X9525Y-284850D02*
X88900Y-284850D01*
X89800Y-284850D01*
X107950Y-266700D01*
X247650Y-266700D01*
X266700Y-285750D01*
X316600Y-285750D01*
X317500Y-284850D01*
G54D13*
X12700Y-18150D02*
X171450Y-18150D01*
X368300Y-18150D01*
G54D13*
X342900Y-43550D02*
X368988Y-43550D01*
X369094Y-43656D01*
X387350Y-25400D01*
X527950Y-25400D01*
X546100Y-43550D01*
G54D13*
X495300Y-25400D02*
X495300Y-43550D01*
G54D15*
X89745Y-237384D02*
X90212Y-236606D01*
X91145Y-236217D01*
X92078Y-236217D01*
X93012Y-236606D01*
X93478Y-237384D01*
X93478Y-241273D01*
X93012Y-242050D01*
X92078Y-242439D01*
X91145Y-242439D01*
X90212Y-242050D01*
X89745Y-241273D01*
G54D15*
X84301Y-241273D02*
X84301Y-237384D01*
X84768Y-236606D01*
X85701Y-236217D01*
X86634Y-236217D01*
X87568Y-236606D01*
X88034Y-237384D01*
X88034Y-241273D01*
X87568Y-242050D01*
X86634Y-242439D01*
X85701Y-242439D01*
X84768Y-242050D01*
X84301Y-241273D01*
G54D15*
X82590Y-236217D02*
X82590Y-242439D01*
X80257Y-238550D01*
X77924Y-242439D01*
X77924Y-236217D01*
G54D15*
X76212Y-236217D02*
X76212Y-242439D01*
X73879Y-242439D01*
X72946Y-242050D01*
X72479Y-241273D01*
X72479Y-240495D01*
X72946Y-239717D01*
X73879Y-239328D01*
X76212Y-239328D01*
G54D15*
X70768Y-242439D02*
X70768Y-237384D01*
X70302Y-236606D01*
X69368Y-236217D01*
X68435Y-236217D01*
X67502Y-236606D01*
X67035Y-237384D01*
X67035Y-242439D01*
G54D15*
X63458Y-236217D02*
X63458Y-242439D01*
G54D15*
X65324Y-242439D02*
X61591Y-242439D01*
G54D15*
X56614Y-236217D02*
X59880Y-236217D01*
X59880Y-242439D01*
X56614Y-242439D01*
G54D15*
X59880Y-239328D02*
X56614Y-239328D01*
G54D15*
X53036Y-239328D02*
X51636Y-238550D01*
X51169Y-237773D01*
X51169Y-236217D01*
G54D15*
X54902Y-236217D02*
X54902Y-242439D01*
X52569Y-242439D01*
X51636Y-242050D01*
X51169Y-241273D01*
X51169Y-240495D01*
X51636Y-239717D01*
X52569Y-239328D01*
X54902Y-239328D01*
G54D15*
X47592Y-236217D02*
X47592Y-242439D01*
G54D15*
X49458Y-242439D02*
X45725Y-242439D01*
G54D15*
X40748Y-236217D02*
X44014Y-236217D01*
X44014Y-242439D01*
X40748Y-242439D01*
G54D15*
X44014Y-239328D02*
X40748Y-239328D01*
G54D15*
X35303Y-237384D02*
X35770Y-236606D01*
X36703Y-236217D01*
X37636Y-236217D01*
X38570Y-236606D01*
X39036Y-237384D01*
X39036Y-241273D01*
X38570Y-242050D01*
X37636Y-242439D01*
X36703Y-242439D01*
X35770Y-242050D01*
X35303Y-241273D01*
G54D15*
X33592Y-236217D02*
X33592Y-242439D01*
G54D15*
X29859Y-236217D02*
X29859Y-242439D01*
G54D15*
X33592Y-239328D02*
X29859Y-239328D01*
G54D15*
X28148Y-236217D02*
X28148Y-242439D01*
X24415Y-236217D01*
X24415Y-242439D01*
G54D15*
X22704Y-236217D02*
X22704Y-242439D01*
G54D15*
X20994Y-236217D02*
X20994Y-242439D01*
G54D15*
X20994Y-238162D02*
X17260Y-242439D01*
G54D15*
X19594Y-239328D02*
X17260Y-236217D01*
G54D15*
X74724Y-247176D02*
X74724Y-253398D01*
X72391Y-253398D01*
X71457Y-253010D01*
X70991Y-252232D01*
X70991Y-251454D01*
X71457Y-250676D01*
X72391Y-250287D01*
X71457Y-249898D01*
X70991Y-249121D01*
X70991Y-248343D01*
X71457Y-247565D01*
X72391Y-247176D01*
X74724Y-247176D01*
G54D15*
X74724Y-250287D02*
X72391Y-250287D01*
G54D15*
X69280Y-253398D02*
X66947Y-250287D01*
X66947Y-247176D01*
G54D15*
X66947Y-250287D02*
X64613Y-253398D01*
G54D15*
X59231Y-250287D02*
X57365Y-250287D01*
X57365Y-248343D01*
X57831Y-247565D01*
X58765Y-247176D01*
X59698Y-247176D01*
X60631Y-247565D01*
X61098Y-248343D01*
X61098Y-252232D01*
X60631Y-253010D01*
X59698Y-253398D01*
X58765Y-253398D01*
X57831Y-253010D01*
X57365Y-252232D01*
G54D15*
X53787Y-250287D02*
X52387Y-249510D01*
X51921Y-248732D01*
X51921Y-247176D01*
G54D15*
X55654Y-247176D02*
X55654Y-253398D01*
X53321Y-253398D01*
X52387Y-253010D01*
X51921Y-252232D01*
X51921Y-251454D01*
X52387Y-250676D01*
X53321Y-250287D01*
X55654Y-250287D01*
G54D15*
X46943Y-247176D02*
X50210Y-247176D01*
X50210Y-253398D01*
X46943Y-253398D01*
G54D15*
X50210Y-250287D02*
X46943Y-250287D01*
G54D15*
X45232Y-253398D02*
X45232Y-247176D01*
X42899Y-251065D01*
X40565Y-247176D01*
X40565Y-253398D01*
G54D15*
X35587Y-247176D02*
X38854Y-247176D01*
X38854Y-253398D01*
X35587Y-253398D01*
G54D15*
X38854Y-250287D02*
X35587Y-250287D01*
G54D16*
X82738Y-273802D02*
X84472Y-273079D01*
X85338Y-271635D01*
X85338Y-264413D01*
X84472Y-262968D01*
X82738Y-262246D01*
G54D16*
X72627Y-264413D02*
X73494Y-262968D01*
X75227Y-262246D01*
X76960Y-262246D01*
X78694Y-262968D01*
X79560Y-264413D01*
X79560Y-271635D01*
X78694Y-273079D01*
X76960Y-273802D01*
X75227Y-273802D01*
X73494Y-273079D01*
X72627Y-271635D01*
G54D16*
X69450Y-273802D02*
X67716Y-273079D01*
X66850Y-271635D01*
X66850Y-264413D01*
X67716Y-262968D01*
X69450Y-262246D01*
G54D16*
X60320Y-269468D02*
X55987Y-273802D01*
X55987Y-262246D01*
G54D16*
X52810Y-264413D02*
X51943Y-262968D01*
X50210Y-262246D01*
X48476Y-262246D01*
X46743Y-262968D01*
X45876Y-264413D01*
X45876Y-268024D01*
X45876Y-268746D01*
X48476Y-267302D01*
X50210Y-267302D01*
X51943Y-268024D01*
X52810Y-269468D01*
X52810Y-271635D01*
X51943Y-273079D01*
X50210Y-273802D01*
X48476Y-273802D01*
X46743Y-273079D01*
X45876Y-271635D01*
X45876Y-268024D01*
G54D16*
X38365Y-268024D02*
X40098Y-268024D01*
X41832Y-268746D01*
X42698Y-270190D01*
X42698Y-271635D01*
X41832Y-273079D01*
X40098Y-273802D01*
X38365Y-273802D01*
X36632Y-273079D01*
X35765Y-271635D01*
X35765Y-270190D01*
X36632Y-268746D01*
X38365Y-268024D01*
X36632Y-267302D01*
X35765Y-265857D01*
X35765Y-264413D01*
X36632Y-262968D01*
X38365Y-262246D01*
X40098Y-262246D01*
X41832Y-262968D01*
X42698Y-264413D01*
X42698Y-265857D01*
X41832Y-267302D01*
X40098Y-268024D01*
G54D16*
X25654Y-271635D02*
X26521Y-273079D01*
X28254Y-273802D01*
X29988Y-273802D01*
X31721Y-273079D01*
X32588Y-271635D01*
X32588Y-268024D01*
X32588Y-267302D01*
X29988Y-268746D01*
X28254Y-268746D01*
X26521Y-268024D01*
X25654Y-266579D01*
X25654Y-264413D01*
X26521Y-262968D01*
X28254Y-262246D01*
X29988Y-262246D01*
X31721Y-262968D01*
X32588Y-264413D01*
X32588Y-268024D01*
G54D12*
X88900Y-342000D02*
X120650Y-342000D01*
X139700Y-322950D01*
G54D12*
X63500Y-342000D02*
X63500Y-342900D01*
X76200Y-355600D01*
X101600Y-355600D01*
X107950Y-349250D01*
X138800Y-349250D01*
X165100Y-322950D01*
G54D12*
X38100Y-304800D02*
X19050Y-323850D01*
X19050Y-456300D01*
X38100Y-475350D01*
G54D12*
X31750Y-208650D02*
X88900Y-208650D01*
G54D12*
X165100Y-284850D02*
X165100Y-285750D01*
X177800Y-298450D01*
X227700Y-298450D01*
X241300Y-284850D01*
G54D16*
X490988Y-246269D02*
X490988Y-257825D01*
X486655Y-250603D01*
X482322Y-257825D01*
X482322Y-246269D01*
G54D16*
X475792Y-246269D02*
X475792Y-257825D01*
X469726Y-257825D01*
G54D16*
X475792Y-252047D02*
X469726Y-252047D01*
G54D16*
X463196Y-253492D02*
X458863Y-257825D01*
X458863Y-246269D01*
G54D12*
X190500Y-254000D02*
X254000Y-254000D01*
X273050Y-273050D01*
X406400Y-273050D01*
G54D12*
X406400Y-234950D02*
X307975Y-234950D01*
X288925Y-219075D01*
X229500Y-219075D01*
X215900Y-208650D01*
G54D12*
X390525Y-244475D02*
X304800Y-244475D01*
X285750Y-228600D01*
X181875Y-228600D01*
X161925Y-208650D01*
G54D12*
X374650Y-254000D02*
X301625Y-254000D01*
X279400Y-234950D01*
X166000Y-234950D01*
X139700Y-208650D01*
G54D12*
X342900Y-263525D02*
X298450Y-263525D01*
X273050Y-241300D01*
X146950Y-241300D01*
X114300Y-208650D01*
G54D12*
X342900Y-263525D02*
X425450Y-263525D01*
G54D13*
X241300Y-208650D02*
X291200Y-208650D01*
X307975Y-222250D01*
X453125Y-222250D01*
X469900Y-208650D01*
G54D13*
X469900Y-208650D02*
X570706Y-208650D01*
G54D12*
X139700Y-170550D02*
X139700Y-184150D01*
X152400Y-196850D01*
X228600Y-196850D01*
X355600Y-196850D01*
G54D12*
X177800Y-184150D02*
X253100Y-184150D01*
X266700Y-170550D01*
G54D12*
X127000Y-158750D02*
X280300Y-158750D01*
X292100Y-170550D01*
G54D12*
X101600Y-152400D02*
X114300Y-152400D01*
X120650Y-146050D01*
X133350Y-146050D01*
X139700Y-152400D01*
X285750Y-152400D01*
X292100Y-158750D01*
X305700Y-158750D01*
X317500Y-170550D01*
G54D12*
X76200Y-146050D02*
X88900Y-146050D01*
X95250Y-139700D01*
X139700Y-139700D01*
X146050Y-146050D01*
X292100Y-146050D01*
X298450Y-152400D01*
X311150Y-152400D01*
X317500Y-158750D01*
X331100Y-158750D01*
X342900Y-170550D01*
G54D12*
X50800Y-152400D02*
X69850Y-133350D01*
X146050Y-133350D01*
X152400Y-139700D01*
X298450Y-139700D01*
X304800Y-146050D01*
X317500Y-146050D01*
X323850Y-152400D01*
X336550Y-152400D01*
X342900Y-158750D01*
X356500Y-158750D01*
X368300Y-170550D01*
G54D12*
X241300Y-119750D02*
X241300Y-120650D01*
X254000Y-133350D01*
X304800Y-133350D01*
X311150Y-139700D01*
X323850Y-139700D01*
X330200Y-146050D01*
X342900Y-146050D01*
X349250Y-152400D01*
X361950Y-152400D01*
X368300Y-158750D01*
X432700Y-158750D01*
X444500Y-170550D01*
G54D12*
X152400Y-119750D02*
X172350Y-119750D01*
X184150Y-107950D01*
X280300Y-107950D01*
X292100Y-119750D01*
G54D12*
X127000Y-119750D02*
X127900Y-119750D01*
X146050Y-101600D01*
X285750Y-101600D01*
X292100Y-107950D01*
X483500Y-107950D01*
X495300Y-119750D01*
G54D12*
X223044Y-92869D02*
X249238Y-92869D01*
G54D12*
X368300Y-120650D02*
X368300Y-139700D01*
X374650Y-146050D01*
X444500Y-146050D01*
G54D12*
X469900Y-146050D02*
X470800Y-146050D01*
X495300Y-170550D01*
G54D12*
X381000Y-133350D02*
X532500Y-133350D01*
X546100Y-119750D01*
G54D13*
X520700Y-170550D02*
X570706Y-170550D01*
G54D12*
X304800Y-184150D02*
X508000Y-184150D01*
G54D12*
X25400Y-43550D02*
X50800Y-43550D01*
X76200Y-43550D01*
X101600Y-43550D01*
G54D12*
X31750Y-190500D02*
X19050Y-190500D01*
X12700Y-184150D01*
X12700Y-38100D01*
X19050Y-31750D01*
X115200Y-31750D01*
X127000Y-43550D01*
G54D12*
X152400Y-43550D02*
X166000Y-43550D01*
X177800Y-31750D01*
X306388Y-31750D01*
G54D12*
X203200Y-57150D02*
X406400Y-57150D01*
G54D12*
X101600Y-43550D02*
X101600Y-44450D01*
X114300Y-57150D01*
X203200Y-57150D01*
G54D12*
X570706Y-50694D02*
X570706Y-30956D01*
X565150Y-25400D01*
X540941Y-25400D01*
X528638Y-12700D01*
X514350Y-12700D01*
G54D12*
X25400Y-119750D02*
X25400Y-107950D01*
X38100Y-95250D01*
X206375Y-95250D01*
X219075Y-82550D01*
X285750Y-82550D01*
X298450Y-95250D01*
X441325Y-95250D01*
X450850Y-85725D01*
X517525Y-85725D01*
X533400Y-101600D01*
G54D12*
X266700Y-92869D02*
X286544Y-92869D01*
X295275Y-101600D01*
X463550Y-101600D01*
X469900Y-95250D01*
G54D12*
X63500Y-63500D02*
X63500Y-79375D01*
X73025Y-88900D01*
X203200Y-88900D01*
X215900Y-76200D01*
X288925Y-76200D01*
X301625Y-88900D01*
X438150Y-88900D01*
X447675Y-79375D01*
X533400Y-79375D01*
G54D12*
X88900Y-63500D02*
X88900Y-76200D01*
X95250Y-82550D01*
X200025Y-82550D01*
X212725Y-69850D01*
X292100Y-69850D01*
X304800Y-82550D01*
X434975Y-82550D01*
X444500Y-73025D01*
X523875Y-73025D01*
X530225Y-66675D01*
X558800Y-66675D01*
X565150Y-73025D01*
X565150Y-139700D01*
X552450Y-152400D01*
G54D12*
X184150Y-69850D02*
X203200Y-69850D01*
X209550Y-63500D01*
X295275Y-63500D01*
X307975Y-76200D01*
X431800Y-76200D01*
X444500Y-63500D01*
X493712Y-63500D01*
X495300Y-65088D01*
G54D12*
X495300Y-279400D02*
X545200Y-279400D01*
X546100Y-278500D01*
G54D12*
X546100Y-278500D02*
X546100Y-330200D01*
X533400Y-342900D01*
X514350Y-342900D01*
G54D12*
X469900Y-284850D02*
X481700Y-284850D01*
X488950Y-292100D01*
X514350Y-292100D01*
X520700Y-298450D01*
X520700Y-322950D01*
G54D12*
X495300Y-304800D02*
X508000Y-317500D01*
X508000Y-330200D01*
X501650Y-336550D01*
X501650Y-361950D01*
G54D12*
X361950Y-339725D02*
X376238Y-339725D01*
X381000Y-334962D01*
X381000Y-317500D01*
X387350Y-311150D01*
X458100Y-311150D01*
X469900Y-322950D01*
G54D12*
X190500Y-322950D02*
X190500Y-323850D01*
X215900Y-349250D01*
X374650Y-349250D01*
G54D12*
X374650Y-349250D02*
X387350Y-336550D01*
X457200Y-336550D01*
X482600Y-361950D01*
X501650Y-361950D01*
G54D12*
X114300Y-284850D02*
X114300Y-285750D01*
X133350Y-304800D01*
X477150Y-304800D01*
X495300Y-322950D01*
G54D12*
X390525Y-349250D02*
X450850Y-349250D01*
X476250Y-374650D01*
X508000Y-374650D01*
X514350Y-368300D01*
X514350Y-342900D01*
G54D12*
X38100Y-526150D02*
X32650Y-526150D01*
X25400Y-533400D01*
X25400Y-723900D01*
X38100Y-736600D01*
G54D12*
X38100Y-500750D02*
X38100Y-501650D01*
X19050Y-520700D01*
X19050Y-730250D01*
X34925Y-746125D01*
G54D12*
X38100Y-475350D02*
X38100Y-476250D01*
X12700Y-501650D01*
X12700Y-736600D01*
X38100Y-758825D01*
G54D12*
X38100Y-736600D02*
X79375Y-736600D01*
X100012Y-757238D01*
X100012Y-781050D01*
G54D12*
X34925Y-746125D02*
X63500Y-746125D01*
X74612Y-757238D01*
X74612Y-781050D01*
G54D12*
X44450Y-727075D02*
X98425Y-727075D01*
X125412Y-754062D01*
X125412Y-781050D01*
G54D12*
X38100Y-758825D02*
X49212Y-768350D01*
X49212Y-781050D01*
G54D13*
X330200Y-703950D02*
X368300Y-703950D01*
G54D13*
X508000Y-703950D02*
X546100Y-703950D01*
G54D13*
X508000Y-703950D02*
X416825Y-703950D01*
X400050Y-720725D01*
X385075Y-720725D01*
X368300Y-703950D01*
G54D13*
X330200Y-703950D02*
X239819Y-703950D01*
X223044Y-720725D01*
X207275Y-720725D01*
X190500Y-703950D01*
G54D12*
X203200Y-736600D02*
X228600Y-736600D01*
X247650Y-717550D01*
X361950Y-717550D01*
X381000Y-736600D01*
X393700Y-736600D01*
G54D12*
X215900Y-749300D02*
X228600Y-749300D01*
X250825Y-727075D01*
X357188Y-727075D01*
X379412Y-749300D01*
G54D12*
X292100Y-749300D02*
X292100Y-739775D01*
X298450Y-733425D01*
X354012Y-733425D01*
X366712Y-746125D01*
X366712Y-754062D01*
X352425Y-768350D01*
X336550Y-768350D01*
X328612Y-776288D01*
X328612Y-781050D01*
G54D12*
X336550Y-749300D02*
X327025Y-739775D01*
X307975Y-739775D01*
X304800Y-742950D01*
X304800Y-755650D01*
X298450Y-762000D01*
X258762Y-762000D01*
X252412Y-768350D01*
X252412Y-784225D01*
G54D12*
X355600Y-749300D02*
X342900Y-762000D01*
X315912Y-762000D01*
X303212Y-774700D01*
X303212Y-784225D01*
G54D12*
X317500Y-749300D02*
X317500Y-750888D01*
X298450Y-769938D01*
X282575Y-769938D01*
X277812Y-774700D01*
X277812Y-782638D01*
G54D12*
X406400Y-755650D02*
X390525Y-755650D01*
X384175Y-762000D01*
X368300Y-762000D01*
X354012Y-776288D01*
X354012Y-781050D01*
G54D12*
X419100Y-742950D02*
X419100Y-754062D01*
X404812Y-768350D01*
X384175Y-768350D01*
X379412Y-773112D01*
X379412Y-781050D01*
G54D12*
X431244Y-761365D02*
X431244Y-783193D01*
X431800Y-782638D01*
G54D12*
X436562Y-742950D02*
X404812Y-774700D01*
X404812Y-782638D01*
G54D12*
X422275Y-727075D02*
X438150Y-727075D01*
X455612Y-744538D01*
X455612Y-781050D01*
G36*
X565150Y-711200D02*
X574675Y-711200D01*
X574675Y-723900D01*
X565150Y-723900D01*
X565150Y-711200D01*
G37*
G54D12*
X565150Y-711200D02*
X574675Y-711200D01*
X574675Y-723900D01*
X565150Y-723900D01*
X565150Y-711200D01*
G36*
X565150Y-693738D02*
X574675Y-693738D01*
X574675Y-706438D01*
X565150Y-706438D01*
X565150Y-693738D01*
G37*
G54D12*
X565150Y-693738D02*
X574675Y-693738D01*
X574675Y-706438D01*
X565150Y-706438D01*
X565150Y-693738D01*
G36*
X565150Y-676275D02*
X574675Y-676275D01*
X574675Y-688975D01*
X565150Y-688975D01*
X565150Y-676275D01*
G37*
G54D12*
X565150Y-676275D02*
X574675Y-676275D01*
X574675Y-688975D01*
X565150Y-688975D01*
X565150Y-676275D01*
G54D12*
X546100Y-703950D02*
X546100Y-704850D01*
X558800Y-717550D01*
X566738Y-717550D01*
G54D12*
X393700Y-703950D02*
X397775Y-703950D01*
X409575Y-692150D01*
X549275Y-692150D01*
X555625Y-698500D01*
X568325Y-698500D01*
G54D12*
X393700Y-703950D02*
X389625Y-703950D01*
X377825Y-692150D01*
X227700Y-692150D01*
X215900Y-703950D01*
G54D12*
X571500Y-679450D02*
X571500Y-247650D01*
X552450Y-228600D01*
G54D12*
X469900Y-730250D02*
X469900Y-755650D01*
X481012Y-766762D01*
X481012Y-781050D01*
G54D12*
X491728Y-730250D02*
X491728Y-755253D01*
X506412Y-769938D01*
X506412Y-782638D01*
G54D12*
X515938Y-730250D02*
X515938Y-755650D01*
X531812Y-771525D01*
X531812Y-781050D01*
G54D12*
X215900Y-500750D02*
X317500Y-500750D01*
X330200Y-513450D01*
G54D12*
X368300Y-373750D02*
X370575Y-373750D01*
X384175Y-387350D01*
X532500Y-387350D01*
X546100Y-373750D01*
G54D12*
X368300Y-399150D02*
X370575Y-399150D01*
X384175Y-412750D01*
X460375Y-412750D01*
X473075Y-400050D01*
X545200Y-400050D01*
X546100Y-399150D01*
G54D12*
X546100Y-424550D02*
X473975Y-424550D01*
X460375Y-438150D01*
X381900Y-438150D01*
X368300Y-424550D01*
G54D12*
X546100Y-449950D02*
X473975Y-449950D01*
X460375Y-463550D01*
X381900Y-463550D01*
X368300Y-449950D01*
G54D12*
X546100Y-475350D02*
X473975Y-475350D01*
X460375Y-488950D01*
X381900Y-488950D01*
X368300Y-475350D01*
G54D12*
X393700Y-500750D02*
X383275Y-500750D01*
X371475Y-488950D01*
X354700Y-488950D01*
X330200Y-513450D01*
G54D12*
X368300Y-500750D02*
X368300Y-500856D01*
X381000Y-513556D01*
X404019Y-513556D01*
X418306Y-499269D01*
X464344Y-499269D01*
X474662Y-488950D01*
X488950Y-488950D01*
G54D12*
X546100Y-526150D02*
X545994Y-526150D01*
X533400Y-513556D01*
X508106Y-513556D01*
X508000Y-513450D01*
G54D12*
X546100Y-500750D02*
X545994Y-500750D01*
X534194Y-488950D01*
X488950Y-488950D01*
G54D12*
X546100Y-576950D02*
X545994Y-576950D01*
X531812Y-562769D01*
X531812Y-540544D01*
X517525Y-526256D01*
X476250Y-526256D01*
X463550Y-538956D01*
X431906Y-538956D01*
X431800Y-538850D01*
G54D12*
X546100Y-602350D02*
X545994Y-602350D01*
X523875Y-580231D01*
X523875Y-541338D01*
X521494Y-538956D01*
X508106Y-538956D01*
X508000Y-538850D01*
G54D12*
X546100Y-627750D02*
X545994Y-627750D01*
X523875Y-605631D01*
G54D12*
X523875Y-605631D02*
X523875Y-592138D01*
X521494Y-589756D01*
X508106Y-589756D01*
X508000Y-589650D01*
G54D12*
X431800Y-665850D02*
X463656Y-665850D01*
X488950Y-640556D01*
X507894Y-640556D01*
X508000Y-640450D01*
G54D12*
X546100Y-678550D02*
X410475Y-678550D01*
X396875Y-692150D01*
X390525Y-692150D01*
X377031Y-678656D01*
X368406Y-678656D01*
X368300Y-678550D01*
G54D12*
X393700Y-678550D02*
X393806Y-678550D01*
X402431Y-669925D01*
X409575Y-669925D01*
X426244Y-653256D01*
X452438Y-653256D01*
X490538Y-615156D01*
X507894Y-615156D01*
X508000Y-615050D01*
G54D12*
X393700Y-678550D02*
X393594Y-678550D01*
X384969Y-669925D01*
G54D12*
X384969Y-669925D02*
X356394Y-669925D01*
X347662Y-678656D01*
X215900Y-678550D01*
G54D12*
X546100Y-653150D02*
X545994Y-653150D01*
X523875Y-631031D01*
X523875Y-615156D01*
X511969Y-603250D01*
G54D12*
X511969Y-603250D02*
X477044Y-603250D01*
X452438Y-627856D01*
X427831Y-627856D01*
X412750Y-641350D01*
X412750Y-653256D01*
X402431Y-663575D01*
X378725Y-663575D01*
X368300Y-653150D01*
G54D12*
X431800Y-589650D02*
X450956Y-589650D01*
X476250Y-564356D01*
X507894Y-564356D01*
X508000Y-564250D01*
G54D12*
X508000Y-589650D02*
X475959Y-589650D01*
X463153Y-602456D01*
X423069Y-602456D01*
X412750Y-612775D01*
X412750Y-629444D01*
X402431Y-639762D01*
X380312Y-639762D01*
X368300Y-627750D01*
G54D12*
X38100Y-627750D02*
X83450Y-627750D01*
X95250Y-615950D01*
X128191Y-615950D01*
G54D12*
X508000Y-538850D02*
X475562Y-538850D01*
X463550Y-550862D01*
X428625Y-550862D01*
X420688Y-558800D01*
X420688Y-593725D01*
X400050Y-614362D01*
X380312Y-614362D01*
X368300Y-602350D01*
G54D12*
X431800Y-538850D02*
X421588Y-538850D01*
X407988Y-552450D01*
X407988Y-581025D01*
X400050Y-588962D01*
X380312Y-588962D01*
X368300Y-576950D01*
G54D12*
X508000Y-513450D02*
X475562Y-513450D01*
X463550Y-525462D01*
X420688Y-525462D01*
X407988Y-538162D01*
X380312Y-538162D01*
X368300Y-526150D01*
G54D12*
X254000Y-640450D02*
X245375Y-640450D01*
X219075Y-666750D01*
X202300Y-666750D01*
X190500Y-678550D01*
G54D12*
X330200Y-640450D02*
X306494Y-640450D01*
X280194Y-666750D01*
X254900Y-666750D01*
X254000Y-665850D01*
G54D12*
X254000Y-615050D02*
X228600Y-615050D01*
X215900Y-627750D01*
G54D12*
X330200Y-615050D02*
X292603Y-615050D01*
X280591Y-627062D01*
X241988Y-627062D01*
X215900Y-653150D01*
G54D12*
X393700Y-653150D02*
X383275Y-653150D01*
X371475Y-641350D01*
X356500Y-641350D01*
X330200Y-615050D01*
G54D12*
X393700Y-627750D02*
X383275Y-627750D01*
X371475Y-615950D01*
X350838Y-615950D01*
X338138Y-603250D01*
X292100Y-602853D01*
X280194Y-615156D01*
X254000Y-615050D01*
G54D12*
X393700Y-602350D02*
X384069Y-602350D01*
X371475Y-589756D01*
X330306Y-589756D01*
X330200Y-589650D01*
G54D12*
X215900Y-602350D02*
X280300Y-602350D01*
X292894Y-589756D01*
X330200Y-589650D01*
G54D12*
X254000Y-589650D02*
X280300Y-589650D01*
X306388Y-563562D01*
X329512Y-563562D01*
X330200Y-564250D01*
G54D12*
X254000Y-564250D02*
X228600Y-564250D01*
X215900Y-576950D01*
G54D12*
X533400Y-228600D02*
X564356Y-259556D01*
X564356Y-660294D01*
X546100Y-678550D01*
G54D15*
X90737Y-226271D02*
X91204Y-225493D01*
X92137Y-225104D01*
X93071Y-225104D01*
X94004Y-225493D01*
X94471Y-226271D01*
X94471Y-230160D01*
X94004Y-230938D01*
X93071Y-231327D01*
X92137Y-231327D01*
X91204Y-230938D01*
X90737Y-230160D01*
G54D15*
X89027Y-231327D02*
X89027Y-225104D01*
X85760Y-225104D01*
G54D15*
X80315Y-230160D02*
X80315Y-226271D01*
X80782Y-225493D01*
X81715Y-225104D01*
X82649Y-225104D01*
X83582Y-225493D01*
X84049Y-226271D01*
X84049Y-230160D01*
X83582Y-230938D01*
X82649Y-231327D01*
X81715Y-231327D01*
X80782Y-230938D01*
X80315Y-230160D01*
G54D15*
X78605Y-225104D02*
X78605Y-231327D01*
X74871Y-225104D01*
X74871Y-231327D01*
G54D15*
X69894Y-225104D02*
X73161Y-225104D01*
X73161Y-231327D01*
X69894Y-231327D01*
G54D15*
X73161Y-228216D02*
X69894Y-228216D01*
G54D15*
X66379Y-225104D02*
X66379Y-231327D01*
X64045Y-231327D01*
X63112Y-230938D01*
X62645Y-230160D01*
X62645Y-229382D01*
X63112Y-228604D01*
X64045Y-228216D01*
X63112Y-227827D01*
X62645Y-227049D01*
X62645Y-226271D01*
X63112Y-225493D01*
X64045Y-225104D01*
X66379Y-225104D01*
G54D15*
X66379Y-228216D02*
X64045Y-228216D01*
G54D15*
X60935Y-231327D02*
X58601Y-228216D01*
X58601Y-225104D01*
G54D15*
X58601Y-228216D02*
X56268Y-231327D01*
G54D15*
X52753Y-225104D02*
X52753Y-231327D01*
X49486Y-231327D01*
G54D15*
X52753Y-228216D02*
X49486Y-228216D01*
G54D15*
X47775Y-225104D02*
X47775Y-225104D01*
G54D15*
X44260Y-231327D02*
X44260Y-225104D01*
X41926Y-228993D01*
X39593Y-225104D01*
X39593Y-231327D01*
G54D15*
X37882Y-225104D02*
X37882Y-231327D01*
G54D15*
X36171Y-225104D02*
X36171Y-231327D01*
X32437Y-225104D01*
X32437Y-231327D01*
G54D15*
X28860Y-225104D02*
X28860Y-231327D01*
G54D15*
X30727Y-231327D02*
X26993Y-231327D01*
G54D15*
X22016Y-225104D02*
X25283Y-225104D01*
X25283Y-231327D01*
X22016Y-231327D01*
G54D15*
X25283Y-228216D02*
X22016Y-228216D01*
G54D15*
X18438Y-228216D02*
X17038Y-227438D01*
X16571Y-226660D01*
X16571Y-225104D01*
G54D15*
X20305Y-225104D02*
X20305Y-231327D01*
X17971Y-231327D01*
X17038Y-230938D01*
X16571Y-230160D01*
X16571Y-229382D01*
X17038Y-228604D01*
X17971Y-228216D01*
X20305Y-228216D01*
G54D17*
X47736Y-56676D02*
X47736Y-67343D01*
G54D17*
X44803Y-57343D02*
X43203Y-56676D01*
X41603Y-56676D01*
X40003Y-57343D01*
X40003Y-58676D01*
X40803Y-59343D01*
X44003Y-60010D01*
X44803Y-60676D01*
X44803Y-62010D01*
X43203Y-62676D01*
X41603Y-62676D01*
X40003Y-62010D01*
G54D12*
X215900Y-526150D02*
X227700Y-526150D01*
X240506Y-538956D01*
X253894Y-538956D01*
X254000Y-538850D01*
G54D12*
X254000Y-564250D02*
X280300Y-564250D01*
X292894Y-551656D01*
G54D12*
X292894Y-551656D02*
X343694Y-551656D01*
X356394Y-564356D01*
X381106Y-564356D01*
X393700Y-576950D01*
G54D12*
X330994Y-538850D02*
X293000Y-538850D01*
X280194Y-551656D01*
X216800Y-551656D01*
X216694Y-551550D01*
G54D12*
X393700Y-551550D02*
X384069Y-551550D01*
X371475Y-538956D01*
X330306Y-538956D01*
X330200Y-538850D01*
G54D12*
X393700Y-526150D02*
X383275Y-526150D01*
X371475Y-514350D01*
X354700Y-514350D01*
X342900Y-526150D01*
G54D12*
X342900Y-526150D02*
X293000Y-526150D01*
X280988Y-538162D01*
G54D12*
X280988Y-538162D02*
X254688Y-538162D01*
X254000Y-538850D01*
G54D12*
X368300Y-373750D02*
X360866Y-373750D01*
X319881Y-414734D01*
X257572Y-414734D01*
X228600Y-385762D01*
X212725Y-385762D01*
X200819Y-373856D01*
X190606Y-373856D01*
X190500Y-373750D01*
G54D12*
X394494Y-399150D02*
X386053Y-399150D01*
X373856Y-384969D01*
X361553Y-384969D01*
X323056Y-423466D01*
X252016Y-423466D01*
X227409Y-398859D01*
X216984Y-398859D01*
X215900Y-399150D01*
G54D12*
X393700Y-424550D02*
X384862Y-424550D01*
X373459Y-413147D01*
X359966Y-413147D01*
X333375Y-439738D01*
X239712Y-439738D01*
X224631Y-424656D01*
X215900Y-424550D01*
X216403Y-425053D01*
X215900Y-424550D01*
G54D12*
X368300Y-424550D02*
X359278Y-424550D01*
X335756Y-448072D01*
X231378Y-448072D01*
X221059Y-437753D01*
X214709Y-437753D01*
X201612Y-424656D01*
X190606Y-424656D01*
X190500Y-424550D01*
G54D12*
X368300Y-475350D02*
X354912Y-475350D01*
X341709Y-488553D01*
X282575Y-488553D01*
X229394Y-488156D01*
X214312Y-488156D01*
X200819Y-474662D01*
X191188Y-474662D01*
X190500Y-475350D01*
G54D12*
X368300Y-449950D02*
X357294Y-449950D01*
X343694Y-463550D01*
G54D12*
X343694Y-463550D02*
X215106Y-463550D01*
X201612Y-450056D01*
X190606Y-450056D01*
X190500Y-449950D01*
G54D12*
X393700Y-449950D02*
X383275Y-449950D01*
X371078Y-437753D01*
X358775Y-437753D01*
X340519Y-456009D01*
X222356Y-456009D01*
X215900Y-449950D01*
G54D12*
X215900Y-475350D02*
X344197Y-475350D01*
X356791Y-462756D01*
X371078Y-462756D01*
X383778Y-475456D01*
X393594Y-475456D01*
X393700Y-475350D01*
G54D12*
X368300Y-399150D02*
X360866Y-399150D01*
X327819Y-432197D01*
X243681Y-432197D01*
X223838Y-412353D01*
X214312Y-412353D01*
X202009Y-400050D01*
X191400Y-400050D01*
X190500Y-399150D01*
G54D12*
X176212Y-781050D02*
X176212Y-758031D01*
X140494Y-722312D01*
G54D12*
X201612Y-779462D02*
X201612Y-765572D01*
X158353Y-722312D01*
G54D12*
X227012Y-781050D02*
X227012Y-772716D01*
X176609Y-722312D01*
G54D12*
X150812Y-779462D02*
X150812Y-750094D01*
X123031Y-722312D01*
G36*
X68421Y-779621D02*
X81121Y-779621D01*
X81121Y-849471D01*
X68421Y-849471D01*
X68421Y-779621D01*
G37*
G54D12*
X68421Y-779621D02*
X81121Y-779621D01*
X81121Y-849471D01*
X68421Y-849471D01*
X68421Y-779621D01*
G36*
X93821Y-779621D02*
X106521Y-779621D01*
X106521Y-849471D01*
X93821Y-849471D01*
X93821Y-779621D01*
G37*
G54D12*
X93821Y-779621D02*
X106521Y-779621D01*
X106521Y-849471D01*
X93821Y-849471D01*
X93821Y-779621D01*
G36*
X119221Y-779621D02*
X131921Y-779621D01*
X131921Y-849471D01*
X119221Y-849471D01*
X119221Y-779621D01*
G37*
G54D12*
X119221Y-779621D02*
X131921Y-779621D01*
X131921Y-849471D01*
X119221Y-849471D01*
X119221Y-779621D01*
G36*
X144621Y-779621D02*
X157321Y-779621D01*
X157321Y-849471D01*
X144621Y-849471D01*
X144621Y-779621D01*
G37*
G54D12*
X144621Y-779621D02*
X157321Y-779621D01*
X157321Y-849471D01*
X144621Y-849471D01*
X144621Y-779621D01*
G36*
X170021Y-779621D02*
X182721Y-779621D01*
X182721Y-849471D01*
X170021Y-849471D01*
X170021Y-779621D01*
G37*
G54D12*
X170021Y-779621D02*
X182721Y-779621D01*
X182721Y-849471D01*
X170021Y-849471D01*
X170021Y-779621D01*
G36*
X195421Y-779621D02*
X208121Y-779621D01*
X208121Y-849471D01*
X195421Y-849471D01*
X195421Y-779621D01*
G37*
G54D12*
X195421Y-779621D02*
X208121Y-779621D01*
X208121Y-849471D01*
X195421Y-849471D01*
X195421Y-779621D01*
G36*
X220821Y-779621D02*
X233521Y-779621D01*
X233521Y-849471D01*
X220821Y-849471D01*
X220821Y-779621D01*
G37*
G54D12*
X220821Y-779621D02*
X233521Y-779621D01*
X233521Y-849471D01*
X220821Y-849471D01*
X220821Y-779621D01*
G36*
X246221Y-779621D02*
X258921Y-779621D01*
X258921Y-849471D01*
X246221Y-849471D01*
X246221Y-779621D01*
G37*
G54D12*
X246221Y-779621D02*
X258921Y-779621D01*
X258921Y-849471D01*
X246221Y-849471D01*
X246221Y-779621D01*
G36*
X271621Y-779621D02*
X284321Y-779621D01*
X284321Y-849471D01*
X271621Y-849471D01*
X271621Y-779621D01*
G37*
G54D12*
X271621Y-779621D02*
X284321Y-779621D01*
X284321Y-849471D01*
X271621Y-849471D01*
X271621Y-779621D01*
G36*
X297021Y-779621D02*
X309721Y-779621D01*
X309721Y-849471D01*
X297021Y-849471D01*
X297021Y-779621D01*
G37*
G54D12*
X297021Y-779621D02*
X309721Y-779621D01*
X309721Y-849471D01*
X297021Y-849471D01*
X297021Y-779621D01*
G36*
X322421Y-779621D02*
X335121Y-779621D01*
X335121Y-849471D01*
X322421Y-849471D01*
X322421Y-779621D01*
G37*
G54D12*
X322421Y-779621D02*
X335121Y-779621D01*
X335121Y-849471D01*
X322421Y-849471D01*
X322421Y-779621D01*
G36*
X347821Y-779621D02*
X360521Y-779621D01*
X360521Y-849471D01*
X347821Y-849471D01*
X347821Y-779621D01*
G37*
G54D12*
X347821Y-779621D02*
X360521Y-779621D01*
X360521Y-849471D01*
X347821Y-849471D01*
X347821Y-779621D01*
G36*
X373221Y-779621D02*
X385921Y-779621D01*
X385921Y-849471D01*
X373221Y-849471D01*
X373221Y-779621D01*
G37*
G54D12*
X373221Y-779621D02*
X385921Y-779621D01*
X385921Y-849471D01*
X373221Y-849471D01*
X373221Y-779621D01*
G36*
X398621Y-779621D02*
X411321Y-779621D01*
X411321Y-849471D01*
X398621Y-849471D01*
X398621Y-779621D01*
G37*
G54D12*
X398621Y-779621D02*
X411321Y-779621D01*
X411321Y-849471D01*
X398621Y-849471D01*
X398621Y-779621D01*
G36*
X424021Y-779621D02*
X436721Y-779621D01*
X436721Y-849471D01*
X424021Y-849471D01*
X424021Y-779621D01*
G37*
G54D12*
X424021Y-779621D02*
X436721Y-779621D01*
X436721Y-849471D01*
X424021Y-849471D01*
X424021Y-779621D01*
G36*
X449421Y-779621D02*
X462121Y-779621D01*
X462121Y-849471D01*
X449421Y-849471D01*
X449421Y-779621D01*
G37*
G54D12*
X449421Y-779621D02*
X462121Y-779621D01*
X462121Y-849471D01*
X449421Y-849471D01*
X449421Y-779621D01*
G36*
X474821Y-779621D02*
X487521Y-779621D01*
X487521Y-849471D01*
X474821Y-849471D01*
X474821Y-779621D01*
G37*
G54D12*
X474821Y-779621D02*
X487521Y-779621D01*
X487521Y-849471D01*
X474821Y-849471D01*
X474821Y-779621D01*
G36*
X500221Y-779621D02*
X512921Y-779621D01*
X512921Y-849471D01*
X500221Y-849471D01*
X500221Y-779621D01*
G37*
G54D12*
X500221Y-779621D02*
X512921Y-779621D01*
X512921Y-849471D01*
X500221Y-849471D01*
X500221Y-779621D01*
G36*
X525621Y-779621D02*
X538321Y-779621D01*
X538321Y-849471D01*
X525621Y-849471D01*
X525621Y-779621D01*
G37*
G54D12*
X525621Y-779621D02*
X538321Y-779621D01*
X538321Y-849471D01*
X525621Y-849471D01*
X525621Y-779621D01*
G36*
X551021Y-779621D02*
X563721Y-779621D01*
X563721Y-849471D01*
X551021Y-849471D01*
X551021Y-779621D01*
G37*
G54D12*
X551021Y-779621D02*
X563721Y-779621D01*
X563721Y-849471D01*
X551021Y-849471D01*
X551021Y-779621D01*
G54D12*
X571500Y-688975D02*
X571500Y-694134D01*
G54D12*
X546100Y-653150D02*
X546206Y-653150D01*
X556419Y-642938D01*
X556419Y-264319D01*
X533400Y-241300D01*
X523081Y-241300D01*
X31750Y-208650D02*
G54D11*
D03*
G54D12*
X393700Y-208650D02*
X393700Y-222250D01*
M02*
